<?xml version="1.0" encoding="UTF-8" standalone="no"?>
<!-- Created with Inkscape (http://www.inkscape.org/) -->

<svg
   width="165.10001mm"
   height="80.099998mm"
   viewBox="0 0 165.10001 80.099998"
   version="1.1"
   id="svg5"
   xml:space="preserve"
   inkscape:version="1.2.1 (9c6d41e410, 2022-07-14)"
   sodipodi:docname="Overlay_1_v2.svg"
   inkscape:export-filename="Overlay_w_eclipse.png"
   inkscape:export-xdpi="96"
   inkscape:export-ydpi="96"
   xmlns:inkscape="http://www.inkscape.org/namespaces/inkscape"
   xmlns:sodipodi="http://sodipodi.sourceforge.net/DTD/sodipodi-0.dtd"
   xmlns="http://www.w3.org/2000/svg"
   xmlns:svg="http://www.w3.org/2000/svg"><sodipodi:namedview
     id="namedview7"
     pagecolor="#ffffff"
     bordercolor="#999999"
     borderopacity="1"
     inkscape:showpageshadow="0"
     inkscape:pageopacity="0"
     inkscape:pagecheckerboard="0"
     inkscape:deskcolor="#d1d1d1"
     inkscape:document-units="mm"
     showgrid="true"
     inkscape:zoom="1.4142136"
     inkscape:cx="308.29856"
     inkscape:cy="193.04015"
     inkscape:window-width="1920"
     inkscape:window-height="1061"
     inkscape:window-x="1366"
     inkscape:window-y="420"
     inkscape:window-maximized="1"
     inkscape:current-layer="layer5"
     showguides="true"><inkscape:grid
       type="xygrid"
       id="grid622"
       units="mm"
       spacingx="1"
       spacingy="1"
       originx="-4.9500003"
       originy="-4.9500001" /><sodipodi:guide
       position="70.050003,80.050006"
       orientation="0,1"
       id="guide1074"
       inkscape:locked="false"
       inkscape:label=""
       inkscape:color="rgb(191,63,63)" /><sodipodi:guide
       position="990.05004,85.050006"
       orientation="-1,0"
       id="guide1076"
       inkscape:locked="false"
       inkscape:label=""
       inkscape:color="rgb(191,63,63)" /><sodipodi:guide
       position="486.05002,-409.95002"
       orientation="0,1"
       id="guide1078"
       inkscape:locked="false"
       inkscape:label=""
       inkscape:color="rgb(191,63,63)" /><sodipodi:guide
       position="0.050000041,-514.95002"
       orientation="-1,0"
       id="guide1080"
       inkscape:locked="false"
       inkscape:label=""
       inkscape:color="rgb(191,63,63)" /><sodipodi:guide
       position="590.05003,508.05002"
       orientation="-1,0"
       id="guide66328"
       inkscape:locked="false"
       inkscape:label=""
       inkscape:color="rgb(191,63,63)" /></sodipodi:namedview><defs
     id="defs2"><symbol
       id="v"
       overflow="visible"><path
         d="M 14.891,-0.89062 C 14.11756,-0.49218 13.3168,-0.19531 12.4848,0 11.64886,0.20703 10.7856,0.3125 9.891,0.3125 c -2.6992,0 -4.8398,-0.75 -6.4219,-2.25 -1.5742,-1.5078 -2.3594,-3.5547 -2.3594,-6.1406 0,-2.5938 0.78516,-4.6406 2.3594,-6.1406 1.582,-1.5078 3.7227,-2.2656 6.4219,-2.2656 0.89453,0 1.7578,0.10156 2.5938,0.29688 0.83203,0.19922 1.6328,0.5 2.4062,0.90625 v 3.3438 c -0.78125,-0.51953 -1.5469,-0.90625 -2.2969,-1.1562 -0.75,-0.24995 -1.543,-0.375 -2.375,-0.375 -1.4922,0 -2.6641,0.48047 -3.5156,1.4375 -0.85547,0.96094 -1.2812,2.2773 -1.2812,3.9531 0,1.668 0.42578,2.9805 1.2812,3.9375 0.85156,0.94922 2.0234,1.4219 3.5156,1.4219 0.83203,0 1.625,-0.11719 2.375,-0.35938 0.75,-0.25 1.5156,-0.63281 2.2969,-1.1562 z"
         id="path13361" /></symbol><symbol
       id="d"
       overflow="visible"><path
         d="m 10.891,-8.8438 c -0.34375,-0.15625 -0.68359,-0.26953 -1.0156,-0.34375 -0.33594,-0.082031 -0.67188,-0.125 -1.0156,-0.125 -1,0 -1.7734,0.32422 -2.3125,0.96875 -0.53125,0.63672 -0.79688,1.5547 -0.79688,2.75 V 0 h -3.8906 v -12.156 h 3.8906 v 2 c 0.5,-0.78906 1.0703,-1.3672 1.7188,-1.7344 0.64453,-0.36328 1.4219,-0.54688 2.3281,-0.54688 0.125,0 0.26562,0.0078 0.42188,0.01563 0.15625,0.01172 0.375,0.03125 0.65625,0.0625 z"
         id="path13364" /></symbol><symbol
       id="b"
       overflow="visible"><path
         d="M 14,-6.1094 V -5 H 4.9219 c 0.09375,0.90625 0.42188,1.5898 0.98438,2.0469 0.5625,0.46094 1.3477,0.6875 2.3594,0.6875 0.82031,0 1.6602,-0.11719 2.5156,-0.35938 0.85156,-0.25 1.7344,-0.61719 2.6406,-1.1094 v 3 c -0.91797,0.34375 -1.8398,0.60547 -2.7656,0.78125 -0.91797,0.17578 -1.8359,0.26562 -2.75,0.26562 -2.1992,0 -3.9062,-0.55469 -5.125,-1.6719 -1.2188,-1.1133 -1.8281,-2.6797 -1.8281,-4.7031 0,-1.9766 0.59766,-3.5352 1.7969,-4.6719 1.1953,-1.1328 2.8438,-1.7031 4.9375,-1.7031 1.9141,0 3.4453,0.57422 4.5938,1.7188 1.1445,1.1484 1.7188,2.6836 1.7188,4.6094 z M 10,-7.4063 C 10,-8.13286 9.78516,-8.7227 9.35938,-9.1719 8.92969,-9.62893 8.36719,-9.8594 7.67188,-9.8594 c -0.75,0 -1.3672,0.21484 -1.8438,0.64062 -0.46875,0.41797 -0.76172,1.0234 -0.875,1.8125 z"
         id="path13367" /></symbol><symbol
       id="l"
       overflow="visible"><path
         d="m 7.3125,-5.4688 c -0.8125,0 -1.4219,0.14062 -1.8281,0.42188 -0.40625,0.27344 -0.60938,0.67188 -0.60938,1.2031 0,0.49219 0.16016,0.875 0.48438,1.1562 0.33203,0.28125 0.78906,0.42188 1.375,0.42188 0.72656,0 1.3438,-0.25781 1.8438,-0.78125 0.5,-0.53125 0.75,-1.1875 0.75,-1.9688 V -5.46891 Z M 13.25,-6.9376 V -1e-4 H 9.3281 V -1.797 c -0.52344,0.74219 -1.1094,1.2773 -1.7656,1.6094 -0.64844,0.33203 -1.4336,0.5 -2.3594,0.5 -1.2617,0 -2.2891,-0.36328 -3.0781,-1.0938 -0.78125,-0.73828 -1.1719,-1.6914 -1.1719,-2.8594 0,-1.4258 0.48828,-2.4727 1.4688,-3.1406 0.97656,-0.66406 2.5195,-1 4.625,-1 h 2.2812 v -0.29688 c 0,-0.61328 -0.24609,-1.0625 -0.73438,-1.3438 -0.48047,-0.28906 -1.2344,-0.4375 -2.2656,-0.4375 -0.82422,0 -1.5938,0.085937 -2.3125,0.25 -0.71875,0.16797 -1.3867,0.41797 -2,0.75 v -2.9688 c 0.83203,-0.19531 1.6641,-0.34766 2.5,-0.45312 0.84375,-0.10156 1.6875,-0.15625 2.5312,-0.15625 2.1875,0 3.7656,0.43359 4.7344,1.2969 0.97656,0.86719 1.4688,2.2656 1.4688,4.2031 z"
         id="path13370" /></symbol><symbol
       id="a"
       overflow="visible"><path
         d="m 6.1094,-15.594 v 3.4375 h 4 v 2.7812 h -4 v 5.1562 c 0,0.5625 0.10938,0.94531 0.32812,1.1406 0.22656,0.19922 0.67578,0.29688 1.3438,0.29688 h 2 v 2.7812 h -3.3438 c -1.5312,0 -2.6211,-0.31641 -3.2656,-0.95312 C 2.5352,-1.59807 2.2188,-2.68794 2.2188,-4.21914 v -5.1562 H 0.2969 v -2.7812 h 1.9219 v -3.4375 z"
         id="path13373" /></symbol><symbol
       id="f"
       overflow="visible"><path
         d="m 10.141,-10.375 v -6.5 h 3.8906 V 0 H 10.141 v -1.75 c -0.54297,0.71094 -1.1367,1.2305 -1.7812,1.5625 -0.63672,0.33203 -1.3828,0.5 -2.2344,0.5 -1.4922,0 -2.7188,-0.59375 -3.6875,-1.7812 -0.96094,-1.1875 -1.4375,-2.7188 -1.4375,-4.5938 0,-1.875 0.47656,-3.4062 1.4375,-4.5938 0.96875,-1.1875 2.1953,-1.7812 3.6875,-1.7812 0.84375,0 1.5859,0.16797 2.2344,0.5 0.64453,0.33594 1.2383,0.85547 1.7812,1.5625 z M 7.5785,-2.5 c 0.82031,0 1.4531,-0.30078 1.8906,-0.90625 0.44531,-0.61328 0.67188,-1.5 0.67188,-2.6562 0,-1.1562 -0.22656,-2.0352 -0.67188,-2.6406 -0.4375,-0.61328 -1.0703,-0.92188 -1.8906,-0.92188 -0.83594,0 -1.4688,0.30859 -1.9062,0.92188 -0.4375,0.60547 -0.65625,1.4844 -0.65625,2.6406 0,1.1562 0.21875,2.043 0.65625,2.6562 C 6.1098,-2.80078 6.7426,-2.5 7.5785,-2.5 Z"
         id="path13376" /></symbol><symbol
       id="k"
       overflow="visible"><path
         d="m 8.3281,-2.5 c 0.83203,0 1.4688,-0.30078 1.9062,-0.90625 0.4375,-0.61328 0.65625,-1.5 0.65625,-2.6562 0,-1.1562 -0.21875,-2.0352 -0.65625,-2.6406 -0.4375,-0.61328 -1.0742,-0.92188 -1.9062,-0.92188 -0.83594,0 -1.4766,0.30859 -1.9219,0.92188 -0.4375,0.60547 -0.65625,1.4844 -0.65625,2.6406 0,1.1484 0.21875,2.0273 0.65625,2.6406 0.44531,0.61719 1.0859,0.92188 1.9219,0.92188 z M 5.75,-10.375 c 0.53125,-0.70703 1.1172,-1.2266 1.7656,-1.5625 0.65625,-0.33203 1.4102,-0.5 2.2656,-0.5 1.4883,0 2.7109,0.59375 3.6719,1.7812 0.96875,1.1875 1.4531,2.7188 1.4531,4.5938 0,1.875 -0.48438,3.4062 -1.4531,4.5938 -0.96094,1.1875 -2.1836,1.7812 -3.6719,1.7812 -0.85547,0 -1.6094,-0.16797 -2.2656,-0.5 C 6.86716,-0.51953 6.2812,-1.03906 5.75,-1.75 V 0 H 1.8594 V -16.875 H 5.75 Z"
         id="path13379" /></symbol><symbol
       id="e"
       overflow="visible"><path
         d="m 0.26562,-12.156 h 3.8906 l 3.2656,8.25 2.7812,-8.25 h 3.875 L 8.96862,1.156 C 8.4569,2.4998 7.85922,3.4412 7.17172,3.9841 6.49203,4.52316 5.59362,4.7966 4.46862,4.7966 h -2.25 V 2.2497 h 1.2188 c 0.65625,0 1.1328,-0.10938 1.4375,-0.32812 C 5.1757,1.71064 5.41008,1.33564 5.57804,0.79658 L 5.68742,0.46846 Z"
         id="path13382" /></symbol><symbol
       id="j"
       overflow="visible"><path
         d="M 11.875,-2.9531 H 5.3438 L 4.3126,0 H 0.1095 l 6,-16.203 h 4.9844 l 6,16.203 h -4.2031 z m -5.5,-3 h 4.4375 l -2.2031,-6.4531 z"
         id="path13385" /></symbol><symbol
       id="i"
       overflow="visible"><path
         d="m 13.125,-10.141 c 0.48828,-0.75 1.0703,-1.3164 1.75,-1.7031 0.67578,-0.39453 1.4219,-0.59375 2.2344,-0.59375 1.3945,0 2.457,0.43359 3.1875,1.2969 0.72656,0.85547 1.0938,2.1016 1.0938,3.7344 v 7.4062 h -3.9062 v -6.3281 c 0.0078,-0.10156 0.01563,-0.20312 0.01563,-0.29688 0.0078,-0.10156 0.01563,-0.25 0.01563,-0.4375 0,-0.86328 -0.13281,-1.4883 -0.39062,-1.875 -0.25,-0.38281 -0.65625,-0.57812 -1.2188,-0.57812 -0.74219,0 -1.3125,0.30859 -1.7188,0.92188 -0.39844,0.60547 -0.60156,1.4805 -0.60938,2.625 v 5.9688 h -3.9062 v -6.3281 c 0,-1.3516 -0.12109,-2.2227 -0.35938,-2.6094 -0.23047,-0.38281 -0.64062,-0.57812 -1.2344,-0.57812 -0.74219,0 -1.3125,0.30859 -1.7188,0.92188 C 5.95313,-7.98854 5.75,-7.11741 5.75,-5.98461 v 5.9844 H 1.8438 v -12.156 H 5.75 v 1.7812 c 0.47656,-0.6875 1.0234,-1.2031 1.6406,-1.5469 0.625,-0.34375 1.3047,-0.51562 2.0469,-0.51562 0.84375,0 1.582,0.20312 2.2188,0.60938 0.64453,0.39844 1.1328,0.96094 1.4688,1.6875 z"
         id="path13388" /></symbol><symbol
       id="h"
       overflow="visible"><path
         d="M 14.078,-7.4062 V 0 h -3.9062 v -5.6406 c 0,-1.0625 -0.02734,-1.7891 -0.07813,-2.1875 C 10.0507,-8.22263 9.97258,-8.51951 9.85929,-8.71872 9.71085,-8.96872 9.50773,-9.16013 9.24991,-9.29684 8.98819,-9.44137 8.69132,-9.51559 8.35929,-9.51559 c -0.8125,0 -1.4531,0.3125 -1.9219,0.9375 -0.46094,0.625 -0.6875,1.4922 -0.6875,2.5938 v 5.9844 h -3.8906 v -16.875 h 3.8906 v 6.5 c 0.58203,-0.70703 1.2031,-1.2266 1.8594,-1.5625 0.66406,-0.33203 1.3945,-0.5 2.1875,-0.5 1.4062,0 2.4688,0.43359 3.1875,1.2969 0.72656,0.85547 1.0938,2.1016 1.0938,3.7344 z"
         id="path13391" /></symbol><symbol
       id="u"
       overflow="visible"><path
         d="m 11.359,-11.766 v 2.9531 c -0.83594,-0.35156 -1.6367,-0.61328 -2.4062,-0.78125 -0.77344,-0.17578 -1.5,-0.26562 -2.1875,-0.26562 -0.74219,0 -1.293,0.09375 -1.6562,0.28125 -0.35547,0.17969 -0.53125,0.46094 -0.53125,0.84375 0,0.3125 0.13281,0.55469 0.40625,0.71875 0.26953,0.16797 0.75391,0.28906 1.4531,0.35938 l 0.6875,0.10938 c 1.9883,0.25 3.3281,0.66797 4.0156,1.25 0.6875,0.57422 1.0312,1.4805 1.0312,2.7188 0,1.293 -0.48047,2.2656 -1.4375,2.9219 -0.94922,0.64844 -2.3711,0.96875 -4.2656,0.96875 -0.80469,0 -1.6367,-0.0625 -2.5,-0.1875 -0.85547,-0.125 -1.7344,-0.3125 -2.6406,-0.5625 v -2.9531 c 0.78125,0.375 1.5781,0.65625 2.3906,0.84375 0.8125,0.1875 1.6328,0.28125 2.4688,0.28125 0.75781,0 1.332,-0.10156 1.7188,-0.3125 0.38281,-0.20703 0.57812,-0.51953 0.57812,-0.9375 0,-0.34375 -0.13672,-0.59766 -0.40625,-0.76562 -0.26172,-0.17578 -0.78125,-0.3125 -1.5625,-0.40625 l -0.6875,-0.09375 c -1.7305,-0.20703 -2.9453,-0.60156 -3.6406,-1.1875 -0.6875,-0.59375 -1.0312,-1.4844 -1.0312,-2.6719 0,-1.2891 0.4375,-2.2422 1.3125,-2.8594 0.88281,-0.625 2.2383,-0.9375 4.0625,-0.9375 0.71875,0 1.4688,0.05469 2.25,0.15625 0.78906,0.10547 1.6484,0.27734 2.5781,0.51562 z"
         id="path13394" /></symbol><symbol
       id="t"
       overflow="visible"><path
         d="m 13.312,-15.688 v 3.4219 c -0.88672,-0.39453 -1.7578,-0.69141 -2.6094,-0.89062 -0.84375,-0.20703 -1.6406,-0.3125 -2.3906,-0.3125 -1,0 -1.7422,0.14062 -2.2188,0.42188 -0.48047,0.27344 -0.71875,0.69922 -0.71875,1.2812 0,0.42969 0.16016,0.76562 0.48438,1.0156 0.32031,0.24219 0.90625,0.44531 1.75,0.60938 l 1.7812,0.35938 c 1.8008,0.36719 3.082,0.91797 3.8438,1.6562 0.75781,0.74219 1.1406,1.7891 1.1406,3.1406 0,1.793 -0.53125,3.125 -1.5938,4 -1.0547,0.86719 -2.668,1.2969 -4.8438,1.2969 -1.0312,0 -2.0703,-0.10156 -3.1094,-0.29688 -1.0312,-0.1875 -2.0625,-0.47266 -3.0938,-0.85938 v -3.5312 c 1.0312,0.55469 2.0312,0.96875 3,1.25 0.96875,0.27344 1.8984,0.40625 2.7969,0.40625 0.90625,0 1.5977,-0.14844 2.0781,-0.45312 0.48828,-0.30078 0.73438,-0.73438 0.73438,-1.2969 0,-0.50781 -0.16797,-0.89844 -0.5,-1.1719 -0.32422,-0.26953 -0.97656,-0.51562 -1.9531,-0.73438 l -1.625,-0.35938 c -1.6172,-0.35156 -2.7969,-0.90625 -3.5469,-1.6562 -0.75,-0.75781 -1.125,-1.7852 -1.125,-3.0781 0,-1.6133 0.51953,-2.8516 1.5625,-3.7188 1.0391,-0.86328 2.5391,-1.2969 4.5,-1.2969 0.88281,0 1.7969,0.07031 2.7344,0.20312 0.9375,0.125 1.9102,0.32422 2.9219,0.59375 z"
         id="path13397" /></symbol><symbol
       id="g"
       overflow="visible"><path
         d="m 1.7344,-4.7344 v -7.4219 h 3.9062 v 1.2188 c 0,0.65625 -0.00781,1.4844 -0.015625,2.4844 v 1.9844 c 0,0.98047 0.019531,1.6875 0.0625,2.125 0.050781,0.42969 0.14062,0.73438 0.26562,0.92188 0.15625,0.26172 0.36328,0.46094 0.625,0.59375 0.25781,0.13672 0.55469,0.20312 0.89062,0.20312 0.80078,0 1.4297,-0.30469 1.8906,-0.92188 0.46875,-0.625 0.70312,-1.4922 0.70312,-2.6094 v -6 h 3.8906 v 12.156 h -3.8906 v -1.75 c -0.58594,0.71094 -1.2031,1.2305 -1.8594,1.5625 -0.6563,0.332 -1.375,0.5 -2.1562,0.5 -1.4062,0 -2.4805,-0.42578 -3.2188,-1.2812 -0.73047,-0.86328 -1.0938,-2.1172 -1.0938,-3.7656 z"
         id="path13400" /></symbol><symbol
       id="s"
       overflow="visible"><path
         d="M 1.8594,-12.156 H 5.75 V 0 H 1.8594 Z m 0,-4.7188 H 5.75 v 3.1562 H 1.8594 Z"
         id="path13403" /></symbol><symbol
       id="c"
       overflow="visible"><path
         d="m 7.6562,-9.6719 c -0.86719,0 -1.5273,0.3125 -1.9844,0.9375 -0.44922,0.61719 -0.67188,1.5078 -0.67188,2.6719 0,1.168 0.22266,2.0586 0.67188,2.6719 0.45703,0.61719 1.1172,0.92188 1.9844,0.92188 0.84375,0 1.4883,-0.30469 1.9375,-0.92188 0.44531,-0.61328 0.67188,-1.5039 0.67188,-2.6719 0,-1.1641 -0.22656,-2.0547 -0.67188,-2.6719 -0.44922,-0.625 -1.0938,-0.9375 -1.9375,-0.9375 z m 0,-2.7656 c 2.082,0 3.7109,0.5625 4.8906,1.6875 1.1758,1.125 1.7656,2.6875 1.7656,4.6875 0,2 -0.58984,3.5625 -1.7656,4.6875 C 11.3671,-0.25 9.7382,0.3125 7.6562,0.3125 5.5507,0.3125 3.9062,-0.25 2.7187,-1.375 1.539,-2.5 0.9531,-4.0625 0.9531,-6.0625 c 0,-2 0.58594,-3.5625 1.7656,-4.6875 1.1875,-1.125 2.832,-1.6875 4.9375,-1.6875 z"
         id="path13406" /></symbol><symbol
       id="r"
       overflow="visible"><path
         d="m 9.8594,-16.875 v 2.5469 H 7.7188 c -0.55469,0 -0.9375,0.10156 -1.1562,0.29688 -0.21875,0.19922 -0.32812,0.54297 -0.32812,1.0312 v 0.84375 h 3.3281 v 2.7812 h -3.3281 v 9.375 h -3.875 v -9.375 h -1.9375 v -2.7812 h 1.9375 v -0.84375 c 0,-1.3203 0.36328,-2.2969 1.0938,-2.9219 0.73828,-0.63281 1.8828,-0.95312 3.4375,-0.95312 z"
         id="path13409" /></symbol><symbol
       id="q"
       overflow="visible"><path
         d="m 2.0469,-16.203 h 4.6562 l 5.8906,11.109 v -11.109 h 3.9688 V 0 H 11.8906 L 6,-11.109 V 0 H 2.0469 Z"
         id="path13412" /></symbol><symbol
       id="p"
       overflow="visible"><path
         d="M 14.078,-7.4062 V 0 h -3.9062 v -5.6562 c 0,-1.0508 -0.02734,-1.7734 -0.07813,-2.1719 C 10.0507,-8.22263 9.97258,-8.51951 9.85929,-8.71872 9.71085,-8.96872 9.50773,-9.16013 9.24991,-9.29684 8.98819,-9.44137 8.69132,-9.51559 8.35929,-9.51559 c -0.8125,0 -1.4531,0.3125 -1.9219,0.9375 -0.46094,0.625 -0.6875,1.4922 -0.6875,2.5938 v 5.9844 h -3.8906 v -12.156 h 3.8906 v 1.7812 c 0.58203,-0.70703 1.2031,-1.2266 1.8594,-1.5625 0.66406,-0.33203 1.3945,-0.5 2.1875,-0.5 1.4062,0 2.4688,0.43359 3.1875,1.2969 0.72656,0.85547 1.0938,2.1016 1.0938,3.7344 z"
         id="path13415" /></symbol><symbol
       id="o"
       overflow="visible"><path
         d="m 2.0469,-16.203 h 6.9219 c 2.0625,0 3.6445,0.46094 4.75,1.375 1.1016,0.91797 1.6562,2.2188 1.6562,3.9062 0,1.7109 -0.55469,3.0234 -1.6562,3.9375 -1.1055,0.90625 -2.6875,1.3594 -4.75,1.3594 h -2.75 V 1e-4 H 2.0469 Z m 4.1719,3.0312 v 4.5312 h 2.3125 c 0.8125,0 1.4375,-0.19531 1.875,-0.59375 0.4375,-0.39453 0.65625,-0.95703 0.65625,-1.6875 0,-0.71875 -0.21875,-1.2695 -0.65625,-1.6562 -0.4375,-0.39453 -1.0625,-0.59375 -1.875,-0.59375 z"
         id="path13418" /></symbol><symbol
       id="n"
       overflow="visible"><path
         d="M 1.8594,-12.156 H 5.75 V -0.218 C 5.75,1.407 5.35938,2.6453 4.5781,3.5008 3.79685,4.36408 2.664,4.7977 1.1875,4.7977 H -0.7344 V 2.2508 h 0.67188 c 0.73828,0 1.2422,-0.16797 1.5156,-0.5 C 1.72261,1.41486 1.85933,0.75861 1.85933,-0.218 Z m 0,-4.7188 H 5.75 v 3.1562 H 1.8594 Z"
         id="path13421" /></symbol><symbol
       id="m"
       overflow="visible"><path
         d="m 11.688,-11.766 v 3.1562 C 11.15675,-8.96136 10.6255,-9.22699 10.0942,-9.40668 9.56295,-9.58246 9.0083,-9.6723 8.438,-9.6723 c -1.0859,0 -1.9297,0.32031 -2.5312,0.95312 -0.60547,0.63672 -0.90625,1.5234 -0.90625,2.6562 0,1.1367 0.30078,2.0234 0.90625,2.6562 0.60156,0.625 1.4453,0.9375 2.5312,0.9375 0.61328,0 1.1914,-0.085938 1.7344,-0.26562 0.53906,-0.17578 1.0469,-0.44141 1.5156,-0.79688 v 3.1719 c -0.61719,0.23047 -1.2344,0.39453 -1.8594,0.5 C 9.2036,0.2534 8.5786,0.312 7.9536,0.312 5.7661,0.312 4.0513,-0.2505 2.813,-1.3755 1.5708,-2.5005 0.9536,-4.063 0.9536,-6.063 c 0,-2 0.61719,-3.5625 1.8594,-4.6875 1.2383,-1.125 2.9531,-1.6875 5.1406,-1.6875 0.63281,0 1.2578,0.05859 1.875,0.17188 0.625,0.10547 1.2422,0.27344 1.8594,0.5 z"
         id="path13424" /></symbol><symbol
       id="t-2"
       overflow="visible"><path
         d="m 18.766,-1.125 c -0.96875,0.5 -1.9805,0.875 -3.0312,1.125 -1.043,0.25781 -2.1367,0.39062 -3.2812,0.39062 -3.3984,0 -6.0898,-0.94531 -8.0781,-2.8438 -1.9922,-1.9062 -2.9844,-4.4844 -2.9844,-7.7344 0,-3.2578 0.99219,-5.8359 2.9844,-7.7344 1.9883,-1.9062 4.6797,-2.8594 8.0781,-2.8594 1.1445,0 2.2383,0.13281 3.2812,0.39062 1.0508,0.25 2.0625,0.625 3.0312,1.125 v 4.2188 c -0.98047,-0.65625 -1.9453,-1.1406 -2.8906,-1.4531 -0.94922,-0.3125 -1.9492,-0.46875 -3,-0.46875 -1.875,0 -3.3516,0.60547 -4.4219,1.8125 -1.0742,1.1992 -1.6094,2.8555 -1.6094,4.9688 0,2.1055 0.53516,3.7617 1.6094,4.9688 1.0703,1.1992 2.5469,1.7969 4.4219,1.7969 1.0508,0 2.0508,-0.14844 3,-0.45312 0.94531,-0.3125 1.9102,-0.80078 2.8906,-1.4688 z"
         id="path15854" /></symbol><symbol
       id="c-9"
       overflow="visible"><path
         d="m 13.734,-11.141 c -0.4375,-0.19531 -0.87109,-0.34375 -1.2969,-0.4375 -0.41797,-0.10156 -0.83984,-0.15625 -1.2656,-0.15625 -1.2617,0 -2.2305,0.40625 -2.9062,1.2188 -0.67969,0.80469 -1.0156,1.9531 -1.0156,3.4531 v 7.0625 H 2.3591 v -15.312 h 4.8906 v 2.5156 c 0.625,-1 1.3438,-1.7266 2.1562,-2.1875 0.82031,-0.46875 1.8008,-0.70312 2.9375,-0.70312 0.16406,0 0.34375,0.01172 0.53125,0.03125 0.19531,0.01172 0.47656,0.03906 0.84375,0.07813 z"
         id="path15857" /></symbol><symbol
       id="a-4"
       overflow="visible"><path
         d="m 17.641,-7.7031 v 1.4062 H 6.188 c 0.125,1.1484 0.53906,2.0078 1.25,2.5781 0.70703,0.57422 1.7031,0.85938 2.9844,0.85938 1.0312,0 2.082,-0.14844 3.1562,-0.45312 1.082,-0.3125 2.1914,-0.77344 3.3281,-1.3906 v 3.7656 c -1.1562,0.4375 -2.3125,0.76562 -3.4688,0.98438 -1.1562,0.22656 -2.3125,0.34375 -3.4688,0.34375 -2.7734,0 -4.9297,-0.70312 -6.4688,-2.1094 -1.5312,-1.4062 -2.2969,-3.3789 -2.2969,-5.9219 0,-2.5 0.75391,-4.4609 2.2656,-5.8906 1.5078,-1.4375 3.582,-2.1562 6.2188,-2.1562 2.4062,0 4.332,0.73047 5.7812,2.1875 1.4453,1.4492 2.1719,3.3828 2.1719,5.7969 z m -5.0312,-1.625 c 0,-0.92578 -0.27344,-1.6719 -0.8125,-2.2344 -0.54297,-0.57031 -1.25,-0.85938 -2.125,-0.85938 -0.94922,0 -1.7188,0.26562 -2.3125,0.79688 -0.5937,0.53126 -0.96484,1.2969 -1.1094,2.2969 z"
         id="path15860" /></symbol><symbol
       id="e-3"
       overflow="visible"><path
         d="m 9.2188,-6.8906 c -1.0234,0 -1.793,0.17188 -2.3125,0.51562 -0.51172,0.34375 -0.76562,0.85547 -0.76562,1.5312 0,0.625 0.20703,1.1172 0.625,1.4688 0.41406,0.34375 0.98828,0.51562 1.7188,0.51562 0.92578,0 1.7031,-0.32812 2.3281,-0.98438 0.63281,-0.66406 0.95312,-1.4922 0.95312,-2.4844 v -0.5625 z m 7.4688,-1.8438 V 0 h -4.9219 v -2.2656 c -0.65625,0.92969 -1.3984,1.6055 -2.2188,2.0312 -0.82422,0.41406 -1.8242,0.625 -3,0.625 -1.5859,0 -2.8711,-0.45703 -3.8594,-1.375 -0.99219,-0.92578 -1.4844,-2.1289 -1.4844,-3.6094 0,-1.7891 0.61328,-3.1016 1.8438,-3.9375 1.2383,-0.84375 3.1797,-1.2656 5.8281,-1.2656 h 2.8906 v -0.39062 c 0,-0.76953 -0.30859,-1.332 -0.92188,-1.6875 -0.61719,-0.36328 -1.5703,-0.54688 -2.8594,-0.54688 -1.0547,0 -2.0312,0.10547 -2.9375,0.3125 -0.89844,0.21094 -1.7305,0.52344 -2.5,0.9375 v -3.7344 c 1.0391,-0.25 2.0859,-0.44141 3.1406,-0.57812 1.0625,-0.13281 2.125,-0.20312 3.1875,-0.20312 2.7578,0 4.75,0.54688 5.9688,1.6406 1.2266,1.0859 1.8438,2.8555 1.8438,5.3125 z"
         id="path15863" /></symbol><symbol
       id="b-5"
       overflow="visible"><path
         d="m 7.7031,-19.656 v 4.3438 H 12.75 v 3.5 H 7.7031 v 6.5 c 0,0.71094 0.14062,1.1875 0.42188,1.4375 0.28126,0.25 0.83594,0.375 1.6719,0.375 h 2.5156 v 3.5 h -4.1875 c -1.9375,0 -3.3125,-0.39844 -4.125,-1.2031 -0.80469,-0.8125 -1.2031,-2.1797 -1.2031,-4.1094 v -6.5 h -2.4219 v -3.5 h 2.4219 v -4.3438 z"
         id="path15866" /></symbol><symbol
       id="k-1"
       overflow="visible"><path
         d="m 12.766,-13.078 v -8.2031 h 4.9219 V -1e-4 H 12.766 v -2.2188 c -0.66797,0.90625 -1.4062,1.5703 -2.2188,1.9844 -0.8126,0.4141 -1.7578,0.625 -2.8281,0.625 -1.8867,0 -3.4336,-0.75 -4.6406,-2.25 -1.2109,-1.5 -1.8125,-3.4258 -1.8125,-5.7812 0,-2.3633 0.60156,-4.2969 1.8125,-5.7969 1.207,-1.5 2.7539,-2.25 4.6406,-2.25 1.0625,0 2,0.21484 2.8125,0.64062 0.82031,0.42969 1.5664,1.0859 2.2344,1.9688 z m -3.2188,9.9219 c 1.0391,0 1.8359,-0.37891 2.3906,-1.1406 0.55078,-0.76953 0.82812,-1.8828 0.82812,-3.3438 0,-1.457 -0.27734,-2.5664 -0.82812,-3.3281 -0.55469,-0.76953 -1.3516,-1.1562 -2.3906,-1.1562 -1.043,0 -1.8398,0.38672 -2.3906,1.1562 -0.55469,0.76172 -0.82812,1.8711 -0.82812,3.3281 0,1.4609 0.27344,2.5742 0.82812,3.3438 0.55078,0.76172 1.3477,1.1406 2.3906,1.1406 z"
         id="path15869" /></symbol><symbol
       id="j-7"
       overflow="visible"><path
         d="m 10.5,-3.1562 c 1.0508,0 1.8516,-0.37891 2.4062,-1.1406 0.55078,-0.76953 0.82812,-1.8828 0.82812,-3.3438 0,-1.457 -0.27734,-2.5664 -0.82812,-3.3281 -0.55469,-0.76953 -1.3555,-1.1562 -2.4062,-1.1562 -1.0547,0 -1.8594,0.38672 -2.4219,1.1562 -0.55469,0.77344 -0.82812,1.8828 -0.82812,3.3281 0,1.4492 0.27344,2.5586 0.82812,3.3281 0.5625,0.77344 1.3672,1.1562 2.4219,1.1562 z m -3.25,-9.9219 c 0.67578,-0.88281 1.4219,-1.5391 2.2344,-1.9688 0.82031,-0.42578 1.7656,-0.64062 2.8281,-0.64062 1.8945,0 3.4453,0.75 4.6562,2.25 1.207,1.5 1.8125,3.4336 1.8125,5.7969 0,2.3555 -0.60547,4.2812 -1.8125,5.7812 -1.2109,1.5 -2.7617,2.25 -4.6562,2.25 -1.0625,0 -2.0078,-0.21094 -2.8281,-0.625 C 8.6719,-0.6602 7.9258,-1.32032 7.25,-2.21882 V -2e-5 H 2.3594 v -21.281 H 7.25 Z"
         id="path15872" /></symbol><symbol
       id="i-4"
       overflow="visible"><path
         d="m 0.34375,-15.312 h 4.8906 l 4.125,10.391 3.5,-10.391 h 4.8906 l -6.4375,16.766 c -0.64844,1.6953 -1.4023,2.8828 -2.2656,3.5625 -0.86719,0.6875 -2,1.0312 -3.4062,1.0312 H 2.79685 V 2.8289 h 1.5312 c 0.83203,0 1.4375,-0.13672 1.8125,-0.40625 C 6.52336,2.16093 6.82024,1.69218 7.03117,1.01645 L 7.17179,0.59457 Z"
         id="path15875" /></symbol><symbol
       id="h-3"
       overflow="visible"><path
         d="m 2.5781,-20.406 h 5.25 v 16.422 h 9.25 V 4e-4 h -14.5 z"
         id="path15878" /></symbol><symbol
       id="g-1"
       overflow="visible"><path
         d="M 17.75,-9.3281 V 0 h -4.9219 v -7.1406 c 0,-1.3203 -0.03125,-2.2344 -0.09375,-2.7344 -0.0625,-0.5 -0.16797,-0.86719 -0.3125,-1.1094 -0.1875,-0.3125 -0.44922,-0.55469 -0.78125,-0.73438 -0.32422,-0.17578 -0.69531,-0.26562 -1.1094,-0.26562 -1.0234,0 -1.8242,0.39844 -2.4062,1.1875 -0.58594,0.78125 -0.875,1.8711 -0.875,3.2656 V -1e-4 H 2.3594 v -15.312 H 7.25 v 2.2344 c 0.73828,-0.88281 1.5195,-1.5391 2.3438,-1.9688 0.83203,-0.42578 1.75,-0.64062 2.75,-0.64062 1.7695,0 3.1133,0.54688 4.0312,1.6406 0.91406,1.0859 1.375,2.6562 1.375,4.7188 z"
         id="path15881" /></symbol><symbol
       id="f-4"
       overflow="visible"><path
         d="m 14.719,-14.828 v 3.9844 c -0.65625,-0.45703 -1.3242,-0.79688 -2,-1.0156 -0.66797,-0.21875 -1.3594,-0.32812 -2.0781,-0.32812 -1.3672,0 -2.4336,0.40234 -3.2031,1.2031 -0.76172,0.79297 -1.1406,1.9062 -1.1406,3.3438 0,1.4297 0.37891,2.543 1.1406,3.3438 0.76953,0.79297 1.8359,1.1875 3.2031,1.1875 0.75781,0 1.4844,-0.10938 2.1719,-0.32812 0.6875,-0.22656 1.3203,-0.56641 1.9062,-1.0156 v 4 c -0.76172,0.28125 -1.5391,0.48828 -2.3281,0.625 -0.78125,0.14453 -1.5742,0.21875 -2.375,0.21875 -2.7617,0 -4.9219,-0.70703 -6.4844,-2.125 -1.5547,-1.4141 -2.3281,-3.3828 -2.3281,-5.9062 0,-2.5312 0.77344,-4.5039 2.3281,-5.9219 1.5625,-1.4141 3.7227,-2.125 6.4844,-2.125 0.80078,0 1.5938,0.07422 2.375,0.21875 0.78125,0.13672 1.5547,0.35156 2.3281,0.64062 z"
         id="path15884" /></symbol><symbol
       id="s-6"
       overflow="visible"><path
         d="m 10.75,-12.516 c 0.82031,0 1.4453,-0.17969 1.875,-0.54688 0.4375,-0.36328 0.65625,-0.89844 0.65625,-1.6094 0,-0.69531 -0.21875,-1.2266 -0.65625,-1.5938 -0.42969,-0.375 -1.0547,-0.5625 -1.875,-0.5625 H 7.8281 v 4.3125 z m 0.17188,8.9375 c 1.0625,0 1.8594,-0.22266 2.3906,-0.67188 0.53125,-0.44531 0.79688,-1.125 0.79688,-2.0312 0,-0.88281 -0.26562,-1.5469 -0.79688,-1.9844 -0.52344,-0.4375 -1.3203,-0.65625 -2.3906,-0.65625 h -3.0938 v 5.3438 z m 4.8906,-7.3438 c 1.1328,0.32422 2.0078,0.92969 2.625,1.8125 0.625,0.88672 0.9375,1.9688 0.9375,3.25 0,1.9688 -0.66797,3.4375 -2,4.4062 -1.3359,0.96875 -3.3555,1.4531 -6.0625,1.4531 h -8.7344 v -20.406 h 7.8906 c 2.832,0 4.8828,0.42969 6.1562,1.2812 1.2812,0.85547 1.9219,2.2266 1.9219,4.1094 0,1 -0.23438,1.8516 -0.70312,2.5469 -0.46875,0.6875 -1.1484,1.2031 -2.0312,1.5469 z"
         id="path15887" /></symbol><symbol
       id="r-9"
       overflow="visible"><path
         d="m 12.422,-21.281 v 3.2188 H 9.7189 c -0.6875,0 -1.1719,0.125 -1.4531,0.375 -0.27344,0.25 -0.40625,0.6875 -0.40625,1.3125 v 1.0625 h 4.1875 v 3.5 H 7.85955 V -2e-4 h -4.8906 v -11.812 h -2.4375 v -3.5 h 2.4375 v -1.0625 c 0,-1.6641 0.46094,-2.8984 1.3906,-3.7031 0.92578,-0.80078 2.3672,-1.2031 4.3281,-1.2031 z"
         id="path15890" /></symbol><symbol
       id="d-4"
       overflow="visible"><path
         d="m 9.6406,-12.188 c -1.0859,0 -1.9141,0.39062 -2.4844,1.1719 -0.57422,0.78125 -0.85938,1.9062 -0.85938,3.375 0,1.4688 0.28516,2.5938 0.85938,3.375 0.57031,0.77344 1.3984,1.1562 2.4844,1.1562 1.0625,0 1.875,-0.38281 2.4375,-1.1562 0.57031,-0.78125 0.85938,-1.9062 0.85938,-3.375 0,-1.4688 -0.28906,-2.5938 -0.85938,-3.375 -0.5625,-0.78125 -1.375,-1.1719 -2.4375,-1.1719 z m 0,-3.5 c 2.6328,0 4.6914,0.71484 6.1719,2.1406 1.4766,1.418 2.2188,3.3867 2.2188,5.9062 0,2.5117 -0.74219,4.4805 -2.2188,5.9062 C 14.332,-0.317 12.2734,0.39 9.6406,0.39 6.9922,0.39 4.9258,-0.31703 3.4375,-1.735 1.9453,-3.1608 1.2031,-5.1295 1.2031,-7.6412 c 0,-2.5195 0.74219,-4.4883 2.2344,-5.9062 1.4883,-1.4258 3.5547,-2.1406 6.2031,-2.1406 z"
         id="path15893" /></symbol><symbol
       id="q-2"
       overflow="visible"><path
         d="m 16.547,-12.766 c 0.61328,-0.94531 1.3477,-1.6719 2.2031,-2.1719 0.85156,-0.5 1.7891,-0.75 2.8125,-0.75 1.7578,0 3.0977,0.54688 4.0156,1.6406 0.92578,1.0859 1.3906,2.6562 1.3906,4.7188 V -4e-4 h -4.9219 v -7.9844 -0.35938 c 0.0078,-0.13281 0.01563,-0.32031 0.01563,-0.5625 0,-1.082 -0.16406,-1.8633 -0.48438,-2.3438 -0.3125,-0.48828 -0.82422,-0.73438 -1.5312,-0.73438 -0.92969,0 -1.6484,0.38672 -2.1562,1.1562 -0.51172,0.76172 -0.77344,1.8672 -0.78125,3.3125 v 7.5156 h -4.9219 v -7.9844 c 0,-1.6953 -0.14844,-2.7852 -0.4375,-3.2656 -0.29297,-0.48828 -0.8125,-0.73438 -1.5625,-0.73438 -0.9375,0 -1.6641,0.38672 -2.1719,1.1562 -0.51172,0.76172 -0.76562,1.8594 -0.76562,3.2969 v 7.5312 h -4.9219 v -15.312 h 4.9219 v 2.2344 c 0.60156,-0.86328 1.2891,-1.5156 2.0625,-1.9531 0.78125,-0.4375 1.6406,-0.65625 2.5781,-0.65625 1.0625,0 2,0.25781 2.8125,0.76562 0.8125,0.51172 1.4258,1.2305 1.8438,2.1562 z"
         id="path15896" /></symbol><symbol
       id="p-2"
       overflow="visible"><path
         d="M 17.75,-9.3281 V 0 h -4.9219 v -7.1094 c 0,-1.3438 -0.03125,-2.2656 -0.09375,-2.7656 -0.0625,-0.5 -0.16797,-0.86719 -0.3125,-1.1094 -0.1875,-0.3125 -0.44922,-0.55469 -0.78125,-0.73438 -0.32422,-0.17578 -0.69531,-0.26562 -1.1094,-0.26562 -1.0234,0 -1.8242,0.39844 -2.4062,1.1875 -0.58594,0.78125 -0.875,1.8711 -0.875,3.2656 V -1e-4 H 2.3594 v -21.281 H 7.25 v 8.2031 c 0.73828,-0.88281 1.5195,-1.5391 2.3438,-1.9688 0.83203,-0.42578 1.75,-0.64062 2.75,-0.64062 1.7695,0 3.1133,0.54688 4.0312,1.6406 0.91406,1.0859 1.375,2.6562 1.375,4.7188 z"
         id="path15899" /></symbol><symbol
       id="o-6"
       overflow="visible"><path
         d="m 2.5781,-20.406 h 5.875 l 7.4219,14 v -14 h 4.9844 V 0 h -5.875 L 7.5625,-14 V 0 H 2.5781 Z"
         id="path15902" /></symbol><symbol
       id="n-4"
       overflow="visible"><path
         d="m 2.1875,-5.9688 v -9.3438 h 4.9219 v 1.5312 c 0,0.83594 -0.00781,1.875 -0.015625,3.125 -0.011719,1.25 -0.015625,2.0859 -0.015625,2.5 0,1.2422 0.03125,2.1328 0.09375,2.6719 0.070313,0.54297 0.17969,0.93359 0.32812,1.1719 0.20703,0.32422 0.47266,0.57422 0.79688,0.75 0.32031,0.16797 0.69141,0.25 1.1094,0.25 1.0195,0 1.8203,-0.39062 2.4062,-1.1719 0.58203,-0.78125 0.875,-1.8672 0.875,-3.2656 v -7.5625 h 4.8906 V -6e-4 H 12.6875 V -2.2194 C 11.94531,-1.32096 11.1641,-0.6608 10.3437,-0.235 9.51948,0.17906 8.6093,0.39 7.6093,0.39 5.8476,0.39 4.5038,-0.14906 3.5781,-1.235 2.64841,-2.317 2.1875,-3.8952 2.1875,-5.9694 Z"
         id="path15905" /></symbol><symbol
       id="m-1"
       overflow="visible"><path
         d="m 2.5781,-20.406 h 8.7344 c 2.5938,0 4.582,0.57812 5.9688,1.7344 1.3945,1.1484 2.0938,2.7891 2.0938,4.9219 0,2.1367 -0.69922,3.7812 -2.0938,4.9375 -1.3867,1.1562 -3.375,1.7344 -5.9688,1.7344 H 7.8281 V 3e-4 h -5.25 z m 5.25,3.8125 v 5.7031 H 10.75 c 1.0195,0 1.8047,-0.25 2.3594,-0.75 0.5625,-0.5 0.84375,-1.2031 0.84375,-2.1094 0,-0.91406 -0.28125,-1.6172 -0.84375,-2.1094 -0.55469,-0.48828 -1.3398,-0.73438 -2.3594,-0.73438 z"
         id="path15908" /></symbol><symbol
       id="l-2"
       overflow="visible"><path
         d="M 2.3594,-15.312 H 7.25 v 15.031 c 0,2.0508 -0.49609,3.6172 -1.4844,4.7031 -0.98047,1.082 -2.4062,1.625 -4.2812,1.625 H -0.9375 V 2.8283 h 0.85938 c 0.92578,0 1.5625,-0.21094 1.9062,-0.625 0.35156,-0.41797 0.53125,-1.2461 0.53125,-2.4844 z m 0,-5.9688 H 7.25 v 4 H 2.3594 Z"
         id="path15911" /></symbol><symbol
       id="f-2"
       overflow="visible"><path
         d="m 20.844,-1.25 c -1.0742,0.5625 -2.1953,0.98438 -3.3594,1.2656 -1.168,0.28125 -2.3828,0.42188 -3.6406,0.42188 -3.7812,0 -6.7773,-1.0508 -8.9844,-3.1562 -2.2109,-2.1133 -3.3125,-4.9766 -3.3125,-8.5938 0,-3.625 1.1016,-6.4922 3.3125,-8.6094 2.207,-2.1133 5.2031,-3.1719 8.9844,-3.1719 1.2578,0 2.4727,0.14844 3.6406,0.4375 1.1641,0.28125 2.2852,0.69922 3.3594,1.25 v 4.7031 c -1.0859,-0.73828 -2.1523,-1.2812 -3.2031,-1.625 -1.0547,-0.34375 -2.1641,-0.51562 -3.3281,-0.51562 -2.0859,0 -3.7266,0.66797 -4.9219,2 -1.1992,1.3359 -1.7969,3.1797 -1.7969,5.5312 0,2.3359 0.59766,4.1719 1.7969,5.5156 1.1953,1.3359 2.8359,2 4.9219,2 1.1641,0 2.2734,-0.17188 3.3281,-0.51562 1.0508,-0.34375 2.1172,-0.88281 3.2031,-1.625 z"
         id="path30797" /></symbol><symbol
       id="e-6"
       overflow="visible"><path
         d="m 15.25,-12.375 c -0.48047,-0.22656 -0.95312,-0.39453 -1.4219,-0.5 -0.46875,-0.10156 -0.94531,-0.15625 -1.4219,-0.15625 -1.3984,0 -2.4766,0.44922 -3.2344,1.3438 -0.75,0.89844 -1.125,2.1797 -1.125,3.8438 V 1.5e-4 H 2.6093 v -17.016 h 5.4375 v 2.7969 c 0.69531,-1.1133 1.5,-1.9258 2.4062,-2.4375 0.90625,-0.50781 1.9922,-0.76562 3.2656,-0.76562 0.17578,0 0.36719,0.01172 0.57812,0.03125 0.21875,0.01172 0.53125,0.04297 0.9375,0.09375 z"
         id="path30800" /></symbol><symbol
       id="b-52"
       overflow="visible"><path
         d="M 19.594,-8.5469 V -7 H 6.875 c 0.13281,1.2734 0.59766,2.2305 1.3906,2.875 0.78906,0.63672 1.8945,0.95312 3.3125,0.95312 1.1445,0 2.3164,-0.16406 3.5156,-0.5 1.1953,-0.34375 2.4297,-0.85938 3.7031,-1.5469 v 4.1875 c -1.293,0.49219 -2.5859,0.85547 -3.875,1.0938 -1.2812,0.25 -2.5625,0.375 -3.8438,0.375 -3.0859,0 -5.4805,-0.78125 -7.1875,-2.3438 -1.6992,-1.5625 -2.5469,-3.7539 -2.5469,-6.5781 0,-2.7812 0.83203,-4.9609 2.5,-6.5469 1.6758,-1.5938 3.9844,-2.3906 6.9219,-2.3906 2.6758,0 4.8164,0.80859 6.4219,2.4219 1.6016,1.6055 2.4062,3.7578 2.4062,6.4531 z m -5.5938,-1.8125 c 0,-1.0312 -0.30469,-1.8633 -0.90625,-2.5 -0.59375,-0.63281 -1.3828,-0.95312 -2.3594,-0.95312 -1.0547,0 -1.9062,0.29688 -2.5625,0.89062 -0.6563,0.59374 -1.0703,1.4492 -1.2344,2.5625 z"
         id="path30803" /></symbol><symbol
       id="j-6"
       overflow="visible"><path
         d="m 10.234,-7.6562 c -1.1367,0 -1.9922,0.19531 -2.5625,0.57812 -0.5625,0.38672 -0.84375,0.95312 -0.84375,1.7031 0,0.6875 0.22656,1.2305 0.6875,1.625 0.45703,0.38672 1.0977,0.57812 1.9219,0.57812 1.0195,0 1.8789,-0.36328 2.5781,-1.0938 0.69531,-0.73828 1.0469,-1.6602 1.0469,-2.7656 v -0.625 z m 8.3125,-2.0469 V 0 h -5.4844 v -2.5156 c -0.73047,1.0312 -1.5547,1.7812 -2.4688,2.25 -0.90625,0.46875 -2.0117,0.70312 -3.3125,0.70312 -1.7617,0 -3.1953,-0.50781 -4.2969,-1.5312 -1.0938,-1.0312 -1.6406,-2.3672 -1.6406,-4.0156 0,-1.9883 0.67969,-3.4453 2.0469,-4.375 1.375,-0.9375 3.5312,-1.4062 6.4688,-1.4062 h 3.2031 v -0.42188 c 0,-0.86328 -0.33984,-1.4922 -1.0156,-1.8906 -0.67969,-0.40625 -1.7344,-0.60938 -3.1719,-0.60938 -1.168,0 -2.2578,0.12109 -3.2656,0.35938 -1,0.23047 -1.9297,0.57812 -2.7812,1.0469 v -4.1562 c 1.1641,-0.28125 2.332,-0.49219 3.5,-0.64062 1.1758,-0.14453 2.3516,-0.21875 3.5312,-0.21875 3.0703,0 5.2852,0.60547 6.6406,1.8125 1.3633,1.2109 2.0469,3.1797 2.0469,5.9062 z"
         id="path30806" /></symbol><symbol
       id="a-5"
       overflow="visible"><path
         d="m 8.5469,-21.844 v 4.8281 h 5.6094 v 3.8906 H 8.5469 v 7.2188 c 0,0.79297 0.15625,1.3281 0.46875,1.6094 0.32031,0.27344 0.94531,0.40625 1.875,0.40625 h 2.7969 v 3.8906 h -4.6719 c -2.1484,0 -3.668,-0.44531 -4.5625,-1.3438 -0.89844,-0.89453 -1.3438,-2.4141 -1.3438,-4.5625 v -7.2188 h -2.7031 v -3.8906 h 2.7031 v -4.8281 z"
         id="path30809" /></symbol><symbol
       id="i-8"
       overflow="visible"><path
         d="m 14.188,-14.516 v -9.125 h 5.4688 V 0 H 14.188 v -2.4531 c -0.75,1 -1.5781,1.7344 -2.4844,2.2031 -0.89844,0.45703 -1.9375,0.6875 -3.125,0.6875 -2.0938,0 -3.8203,-0.83203 -5.1719,-2.5 -1.3438,-1.6641 -2.0156,-3.8047 -2.0156,-6.4219 0,-2.625 0.67188,-4.7695 2.0156,-6.4375 1.3516,-1.6641 3.0781,-2.5 5.1719,-2.5 1.1758,0 2.2188,0.23438 3.125,0.70312 0.9062,0.46874 1.7344,1.2031 2.4844,2.2031 z m -3.5781,11 c 1.1562,0 2.0391,-0.42188 2.6562,-1.2656 0.61328,-0.85156 0.92188,-2.0859 0.92188,-3.7031 0,-1.625 -0.30859,-2.8594 -0.92188,-3.7031 -0.61719,-0.85156 -1.5,-1.2812 -2.6562,-1.2812 -1.1562,0 -2.043,0.42969 -2.6562,1.2812 -0.61719,0.84375 -0.92188,2.0781 -0.92188,3.7031 0,1.6172 0.30469,2.8516 0.92188,3.7031 0.61328,0.84375 1.5,1.2656 2.6562,1.2656 z"
         id="path30812" /></symbol><symbol
       id="h-7"
       overflow="visible"><path
         d="m 11.672,-3.5156 c 1.1562,0 2.0391,-0.42188 2.6562,-1.2656 0.61328,-0.85156 0.92188,-2.0859 0.92188,-3.7031 0,-1.625 -0.30859,-2.8594 -0.92188,-3.7031 -0.61719,-0.85156 -1.5,-1.2812 -2.6562,-1.2812 -1.168,0 -2.0625,0.42969 -2.6875,1.2812 -0.625,0.85547 -0.9375,2.0898 -0.9375,3.7031 0,1.6055 0.3125,2.8359 0.9375,3.6875 0.625,0.85547 1.5195,1.2812 2.6875,1.2812 z m -3.625,-11 c 0.75,-1 1.5781,-1.7344 2.4844,-2.2031 0.91406,-0.46875 1.9688,-0.70312 3.1562,-0.70312 2.0938,0 3.8125,0.83594 5.1562,2.5 1.3516,1.668 2.0312,3.8125 2.0312,6.4375 0,2.6172 -0.67969,4.7578 -2.0312,6.4219 -1.3438,1.668 -3.0625,2.5 -5.1562,2.5 -1.1875,0 -2.2422,-0.23438 -3.1562,-0.70312 C 9.62515,-0.73429 8.797,-1.46084 8.047,-2.45304 V 6e-5 H 2.6095 v -23.641 H 8.047 Z"
         id="path30815" /></symbol><symbol
       id="g-9"
       overflow="visible"><path
         d="m 0.375,-17.016 h 5.4375 l 4.5781,11.547 3.8906,-11.547 h 5.4375 L 12.5625,1.609 C 11.84375,3.5035 11.0039,4.8278 10.0469,5.5778 9.08596,6.33561 7.8281,6.7184 6.2657,6.7184 H 3.1095 V 3.1403 h 1.7031 c 0.92578,0 1.5977,-0.14844 2.0156,-0.4375 C 7.24226,2.40983 7.57039,1.88249 7.81258,1.1247 L 7.9532,0.65595 Z"
         id="path30818" /></symbol><symbol
       id="d-6"
       overflow="visible"><path
         d="m 2.4375,-6.625 v -10.391 h 5.4688 v 1.7031 c 0,0.92969 -0.00781,2.0898 -0.015625,3.4844 -0.011719,1.3867 -0.015625,2.3125 -0.015625,2.7812 0,1.3672 0.03125,2.3516 0.09375,2.9531 0.070312,0.60547 0.19531,1.043 0.375,1.3125 0.21875,0.35547 0.50391,0.63281 0.85938,0.82812 0.36328,0.1875 0.78125,0.28125 1.25,0.28125 1.1328,0 2.0234,-0.42969 2.6719,-1.2969 0.64453,-0.875 0.96875,-2.0859 0.96875,-3.6406 v -8.4062 h 5.4375 V -3e-5 h -5.4375 v -2.4531 c -0.82422,0.99219 -1.6953,1.7188 -2.6094,2.1875 -0.91797,0.46875 -1.9297,0.70312 -3.0312,0.70312 -1.9609,0 -3.4531,-0.59766 -4.4844,-1.7969 -1.0234,-1.207 -1.5312,-2.9609 -1.5312,-5.2656 z"
         id="path30821" /></symbol><symbol
       id="s-0"
       overflow="visible"><path
         d="M 8.0469,-2.4531 V 6.4688 H 2.6094 v -23.484 h 5.4375 v 2.5 c 0.75,-1 1.5781,-1.7344 2.4844,-2.2031 0.91406,-0.46875 1.9688,-0.70312 3.1562,-0.70312 2.0938,0 3.8125,0.83594 5.1562,2.5 1.3516,1.668 2.0312,3.8125 2.0312,6.4375 0,2.6172 -0.67969,4.7578 -2.0312,6.4219 -1.3438,1.668 -3.0625,2.5 -5.1562,2.5 -1.1875,0 -2.2422,-0.23438 -3.1562,-0.70312 -0.90625,-0.46875 -1.7344,-1.1953 -2.4844,-2.1875 z m 3.625,-11.016 c -1.168,0 -2.0625,0.42969 -2.6875,1.2812 -0.625,0.85547 -0.9375,2.0898 -0.9375,3.7031 0,1.6055 0.3125,2.8359 0.9375,3.6875 0.625,0.85547 1.5195,1.2812 2.6875,1.2812 1.1562,0 2.0391,-0.42188 2.6562,-1.2656 0.61328,-0.85156 0.92188,-2.0859 0.92188,-3.7031 0,-1.625 -0.30859,-2.8594 -0.92188,-3.7031 -0.61719,-0.85156 -1.5,-1.2812 -2.6562,-1.2812 z"
         id="path30824" /></symbol><symbol
       id="c-4"
       overflow="visible"><path
         d="m 10.703,-13.531 c -1.1992,0 -2.1172,0.43359 -2.75,1.2969 -0.63672,0.86719 -0.95312,2.1172 -0.95312,3.75 0,1.625 0.31641,2.8711 0.95312,3.7344 0.63281,0.86719 1.5508,1.2969 2.75,1.2969 1.1875,0 2.0938,-0.42969 2.7188,-1.2969 0.63281,-0.86328 0.95312,-2.1094 0.95312,-3.7344 0,-1.6328 -0.32031,-2.8828 -0.95312,-3.75 -0.625,-0.86328 -1.5312,-1.2969 -2.7188,-1.2969 z m 0,-3.8906 c 2.9258,0 5.2109,0.79297 6.8594,2.375 1.6445,1.5742 2.4688,3.7617 2.4688,6.5625 0,2.793 -0.82422,4.9805 -2.4688,6.5625 -1.6484,1.5742 -3.9336,2.3594 -6.8594,2.3594 -2.9375,0 -5.2344,-0.78516 -6.8906,-2.3594 -1.6484,-1.582 -2.4688,-3.7695 -2.4688,-6.5625 0,-2.8008 0.82031,-4.9883 2.4688,-6.5625 1.6562,-1.582 3.9531,-2.375 6.8906,-2.375 z"
         id="path30827" /></symbol><symbol
       id="r-1"
       overflow="visible"><path
         d="m 13.812,-23.641 v 3.5781 h -3.0156 c -0.77344,0 -1.3086,0.14062 -1.6094,0.42188 -0.30469,0.27344 -0.45312,0.75 -0.45312,1.4375 v 1.1875 h 4.6406 v 3.8906 h -4.6406 v 13.125 h -5.4375 v -13.125 h -2.7031 v -3.8906 h 2.7031 v -1.1875 c 0,-1.8516 0.51562,-3.2227 1.5469,-4.1094 1.0312,-0.88281 2.6289,-1.3281 4.7969,-1.3281 z"
         id="path30830" /></symbol><symbol
       id="q-0"
       overflow="visible"><path
         d="m 18.375,-14.188 c 0.6875,-1.0508 1.5039,-1.8516 2.4531,-2.4062 0.94531,-0.55078 1.9883,-0.82812 3.125,-0.82812 1.957,0 3.4453,0.60547 4.4688,1.8125 1.0195,1.1992 1.5312,2.9492 1.5312,5.25 v 10.359 h -5.4688 v -8.875 c 0.0078,-0.125 0.01563,-0.25781 0.01563,-0.40625 0.0078,-0.14453 0.01563,-0.34766 0.01563,-0.60938 0,-1.207 -0.17969,-2.082 -0.53125,-2.625 -0.35547,-0.53906 -0.92969,-0.8125 -1.7188,-0.8125 -1.0312,0 -1.8281,0.42969 -2.3906,1.2812 -0.5625,0.85547 -0.85547,2.0859 -0.875,3.6875 v 8.3594 h -5.4688 v -8.875 c 0,-1.8828 -0.16406,-3.0977 -0.48438,-3.6406 -0.32422,-0.53906 -0.90234,-0.8125 -1.7344,-0.8125 -1.043,0 -1.8516,0.43359 -2.4219,1.2969 -0.5625,0.85547 -0.84375,2.0742 -0.84375,3.6562 v 8.375 h -5.4688 v -17.016 h 5.4688 v 2.5 c 0.66406,-0.96875 1.4297,-1.6914 2.2969,-2.1719 0.875,-0.48828 1.832,-0.73438 2.875,-0.73438 1.1758,0 2.2109,0.28906 3.1094,0.85938 0.90625,0.5625 1.5859,1.3555 2.0469,2.375 z"
         id="path30833" /></symbol><symbol
       id="p-4"
       overflow="visible"><path
         d="M 19.719,-10.359 V 0 h -5.4688 v -7.9062 c 0,-1.4766 -0.03906,-2.4922 -0.10938,-3.0469 -0.0625,-0.5625 -0.17188,-0.97656 -0.32812,-1.25 -0.21875,-0.35156 -0.51172,-0.62891 -0.875,-0.82812 -0.36719,-0.19531 -0.77734,-0.29688 -1.2344,-0.29688 -1.1367,0 -2.0312,0.44531 -2.6875,1.3281 -0.64844,0.875 -0.96875,2.0859 -0.96875,3.625 V 0 h -5.4375 v -23.641 h 5.4375 v 9.125 c 0.82031,-1 1.6914,-1.7344 2.6094,-2.2031 0.92578,-0.46875 1.9453,-0.70312 3.0625,-0.70312 1.957,0 3.4453,0.60547 4.4688,1.8125 1.0195,1.1992 1.5312,2.9492 1.5312,5.25 z"
         id="path30836" /></symbol><symbol
       id="o-8"
       overflow="visible"><path
         d="m 2.8594,-22.672 h 6.5312 l 8.25,15.547 v -15.547 h 5.5469 V 0 H 16.6406 L 8.4062,-15.562 V 0 H 2.8593 Z"
         id="path30839" /></symbol><symbol
       id="n-7"
       overflow="visible"><path
         d="M 19.719,-10.359 V 0 h -5.4688 v -7.9219 c 0,-1.4688 -0.03906,-2.4766 -0.10938,-3.0312 -0.0625,-0.5625 -0.17188,-0.97656 -0.32812,-1.25 -0.21875,-0.35156 -0.51172,-0.62891 -0.875,-0.82812 -0.36719,-0.19531 -0.77734,-0.29688 -1.2344,-0.29688 -1.1367,0 -2.0312,0.44531 -2.6875,1.3281 -0.64844,0.875 -0.96875,2.0859 -0.96875,3.625 V 0 h -5.4375 v -17.016 h 5.4375 v 2.5 c 0.82031,-1 1.6914,-1.7344 2.6094,-2.2031 0.92578,-0.46875 1.9453,-0.70312 3.0625,-0.70312 1.957,0 3.4453,0.60547 4.4688,1.8125 1.0195,1.1992 1.5312,2.9492 1.5312,5.25 z"
         id="path30842" /></symbol><symbol
       id="m-0"
       overflow="visible"><path
         d="m 2.8594,-22.672 h 9.7031 c 2.8828,0 5.0977,0.64062 6.6406,1.9219 1.5508,1.2812 2.3281,3.1055 2.3281,5.4688 0,2.375 -0.77734,4.2031 -2.3281,5.4844 -1.543,1.2812 -3.7578,1.9219 -6.6406,1.9219 H 8.7031 V 0 H 2.8593 Z m 5.8438,4.2344 v 6.3281 h 3.2344 c 1.1328,0 2.0078,-0.27344 2.625,-0.82812 0.625,-0.55078 0.9375,-1.332 0.9375,-2.3438 0,-1.0078 -0.3125,-1.7852 -0.9375,-2.3281 -0.61719,-0.55078 -1.4922,-0.82812 -2.625,-0.82812 z"
         id="path30845" /></symbol><symbol
       id="l-8"
       overflow="visible"><path
         d="m 2.6094,-17.016 h 5.4375 v 16.719 c 0,2.2695 -0.54688,4.0039 -1.6406,5.2031 -1.0938,1.207 -2.6797,1.8125 -4.75,1.8125 H -1.0312 V 3.1405 h 0.9375 c 1.0312,0 1.7383,-0.23438 2.125,-0.70312 0.38281,-0.46094 0.57812,-1.3711 0.57812,-2.7344 z m 0,-6.625 h 5.4375 v 4.4375 H 2.6094 Z"
         id="path30848" /></symbol><symbol
       id="k-6"
       overflow="visible"><path
         d="m 16.359,-16.484 v 4.4375 c -0.74219,-0.50781 -1.4844,-0.88281 -2.2344,-1.125 -0.74219,-0.23828 -1.5117,-0.35938 -2.3125,-0.35938 -1.5117,0 -2.6953,0.44531 -3.5469,1.3281 -0.84375,0.88672 -1.2656,2.125 -1.2656,3.7188 0,1.5859 0.42188,2.8203 1.2656,3.7031 0.85156,0.88672 2.0352,1.3281 3.5469,1.3281 0.85156,0 1.6602,-0.125 2.4219,-0.375 0.76953,-0.25 1.4766,-0.625 2.125,-1.125 v 4.4531 c -0.85547,0.3125 -1.7188,0.54688 -2.5938,0.70312 -0.875,0.15624 -1.75,0.23438 -2.625,0.23438 -3.0742,0 -5.4766,-0.78516 -7.2031,-2.3594 -1.7305,-1.5703 -2.5938,-3.7578 -2.5938,-6.5625 0,-2.8125 0.86328,-5.0039 2.5938,-6.5781 1.7266,-1.5703 4.1289,-2.3594 7.2031,-2.3594 0.88281,0 1.7578,0.07813 2.625,0.23438 0.86328,0.15625 1.7266,0.39062 2.5938,0.70312 z"
         id="path30851" /></symbol><symbol
       id="t-24"
       overflow="visible"><path
         d="m 18.766,-1.125 c -0.96875,0.5 -1.9805,0.875 -3.0312,1.125 -1.043,0.25781 -2.1367,0.39062 -3.2812,0.39062 -3.3984,0 -6.0898,-0.94531 -8.0781,-2.8438 -1.9922,-1.9062 -2.9844,-4.4844 -2.9844,-7.7344 0,-3.2578 0.99219,-5.8359 2.9844,-7.7344 1.9883,-1.9062 4.6797,-2.8594 8.0781,-2.8594 1.1445,0 2.2383,0.13281 3.2812,0.39062 1.0508,0.25 2.0625,0.625 3.0312,1.125 v 4.2188 c -0.98047,-0.65625 -1.9453,-1.1406 -2.8906,-1.4531 -0.94922,-0.3125 -1.9492,-0.46875 -3,-0.46875 -1.875,0 -3.3516,0.60547 -4.4219,1.8125 -1.0742,1.1992 -1.6094,2.8555 -1.6094,4.9688 0,2.1055 0.53516,3.7617 1.6094,4.9688 1.0703,1.1992 2.5469,1.7969 4.4219,1.7969 1.0508,0 2.0508,-0.14844 3,-0.45312 0.94531,-0.3125 1.9102,-0.80078 2.8906,-1.4688 z"
         id="path31974" /></symbol><symbol
       id="c-7"
       overflow="visible"><path
         d="m 13.734,-11.141 c -0.4375,-0.19531 -0.87109,-0.34375 -1.2969,-0.4375 -0.41797,-0.10156 -0.83984,-0.15625 -1.2656,-0.15625 -1.2617,0 -2.2305,0.40625 -2.9062,1.2188 -0.67969,0.80469 -1.0156,1.9531 -1.0156,3.4531 v 7.0625 H 2.3591 v -15.312 h 4.8906 v 2.5156 c 0.625,-1 1.3438,-1.7266 2.1562,-2.1875 0.82031,-0.46875 1.8008,-0.70312 2.9375,-0.70312 0.16406,0 0.34375,0.01172 0.53125,0.03125 0.19531,0.01172 0.47656,0.03906 0.84375,0.07813 z"
         id="path31977" /></symbol><symbol
       id="a-9"
       overflow="visible"><path
         d="m 17.641,-7.7031 v 1.4062 H 6.188 c 0.125,1.1484 0.53906,2.0078 1.25,2.5781 0.70703,0.57422 1.7031,0.85938 2.9844,0.85938 1.0312,0 2.082,-0.14844 3.1562,-0.45312 1.082,-0.3125 2.1914,-0.77344 3.3281,-1.3906 v 3.7656 c -1.1562,0.4375 -2.3125,0.76562 -3.4688,0.98438 -1.1562,0.22656 -2.3125,0.34375 -3.4688,0.34375 -2.7734,0 -4.9297,-0.70312 -6.4688,-2.1094 -1.5312,-1.4062 -2.2969,-3.3789 -2.2969,-5.9219 0,-2.5 0.75391,-4.4609 2.2656,-5.8906 1.5078,-1.4375 3.582,-2.1562 6.2188,-2.1562 2.4062,0 4.332,0.73047 5.7812,2.1875 1.4453,1.4492 2.1719,3.3828 2.1719,5.7969 z m -5.0312,-1.625 c 0,-0.92578 -0.27344,-1.6719 -0.8125,-2.2344 -0.54297,-0.57031 -1.25,-0.85938 -2.125,-0.85938 -0.94922,0 -1.7188,0.26562 -2.3125,0.79688 -0.5937,0.53126 -0.96484,1.2969 -1.1094,2.2969 z"
         id="path31980" /></symbol><symbol
       id="e-39"
       overflow="visible"><path
         d="m 9.2188,-6.8906 c -1.0234,0 -1.793,0.17188 -2.3125,0.51562 -0.51172,0.34375 -0.76562,0.85547 -0.76562,1.5312 0,0.625 0.20703,1.1172 0.625,1.4688 0.41406,0.34375 0.98828,0.51562 1.7188,0.51562 0.92578,0 1.7031,-0.32812 2.3281,-0.98438 0.63281,-0.66406 0.95312,-1.4922 0.95312,-2.4844 v -0.5625 z m 7.4688,-1.8438 V 0 h -4.9219 v -2.2656 c -0.65625,0.92969 -1.3984,1.6055 -2.2188,2.0312 -0.82422,0.41406 -1.8242,0.625 -3,0.625 -1.5859,0 -2.8711,-0.45703 -3.8594,-1.375 -0.99219,-0.92578 -1.4844,-2.1289 -1.4844,-3.6094 0,-1.7891 0.61328,-3.1016 1.8438,-3.9375 1.2383,-0.84375 3.1797,-1.2656 5.8281,-1.2656 h 2.8906 v -0.39062 c 0,-0.76953 -0.30859,-1.332 -0.92188,-1.6875 -0.61719,-0.36328 -1.5703,-0.54688 -2.8594,-0.54688 -1.0547,0 -2.0312,0.10547 -2.9375,0.3125 -0.89844,0.21094 -1.7305,0.52344 -2.5,0.9375 v -3.7344 c 1.0391,-0.25 2.0859,-0.44141 3.1406,-0.57812 1.0625,-0.13281 2.125,-0.20312 3.1875,-0.20312 2.7578,0 4.75,0.54688 5.9688,1.6406 1.2266,1.0859 1.8438,2.8555 1.8438,5.3125 z"
         id="path31983" /></symbol><symbol
       id="b-2"
       overflow="visible"><path
         d="m 7.7031,-19.656 v 4.3438 H 12.75 v 3.5 H 7.7031 v 6.5 c 0,0.71094 0.14062,1.1875 0.42188,1.4375 0.28126,0.25 0.83594,0.375 1.6719,0.375 h 2.5156 v 3.5 h -4.1875 c -1.9375,0 -3.3125,-0.39844 -4.125,-1.2031 -0.80469,-0.8125 -1.2031,-2.1797 -1.2031,-4.1094 v -6.5 h -2.4219 v -3.5 h 2.4219 v -4.3438 z"
         id="path31986" /></symbol><symbol
       id="k-8"
       overflow="visible"><path
         d="m 12.766,-13.078 v -8.2031 h 4.9219 V -1e-4 H 12.766 v -2.2188 c -0.66797,0.90625 -1.4062,1.5703 -2.2188,1.9844 -0.8126,0.4141 -1.7578,0.625 -2.8281,0.625 -1.8867,0 -3.4336,-0.75 -4.6406,-2.25 -1.2109,-1.5 -1.8125,-3.4258 -1.8125,-5.7812 0,-2.3633 0.60156,-4.2969 1.8125,-5.7969 1.207,-1.5 2.7539,-2.25 4.6406,-2.25 1.0625,0 2,0.21484 2.8125,0.64062 0.82031,0.42969 1.5664,1.0859 2.2344,1.9688 z m -3.2188,9.9219 c 1.0391,0 1.8359,-0.37891 2.3906,-1.1406 0.55078,-0.76953 0.82812,-1.8828 0.82812,-3.3438 0,-1.457 -0.27734,-2.5664 -0.82812,-3.3281 -0.55469,-0.76953 -1.3516,-1.1562 -2.3906,-1.1562 -1.043,0 -1.8398,0.38672 -2.3906,1.1562 -0.55469,0.76172 -0.82812,1.8711 -0.82812,3.3281 0,1.4609 0.27344,2.5742 0.82812,3.3438 0.55078,0.76172 1.3477,1.1406 2.3906,1.1406 z"
         id="path31989" /></symbol><symbol
       id="j-3"
       overflow="visible"><path
         d="m 10.5,-3.1562 c 1.0508,0 1.8516,-0.37891 2.4062,-1.1406 0.55078,-0.76953 0.82812,-1.8828 0.82812,-3.3438 0,-1.457 -0.27734,-2.5664 -0.82812,-3.3281 -0.55469,-0.76953 -1.3555,-1.1562 -2.4062,-1.1562 -1.0547,0 -1.8594,0.38672 -2.4219,1.1562 -0.55469,0.77344 -0.82812,1.8828 -0.82812,3.3281 0,1.4492 0.27344,2.5586 0.82812,3.3281 0.5625,0.77344 1.3672,1.1562 2.4219,1.1562 z m -3.25,-9.9219 c 0.67578,-0.88281 1.4219,-1.5391 2.2344,-1.9688 0.82031,-0.42578 1.7656,-0.64062 2.8281,-0.64062 1.8945,0 3.4453,0.75 4.6562,2.25 1.207,1.5 1.8125,3.4336 1.8125,5.7969 0,2.3555 -0.60547,4.2812 -1.8125,5.7812 -1.2109,1.5 -2.7617,2.25 -4.6562,2.25 -1.0625,0 -2.0078,-0.21094 -2.8281,-0.625 C 8.6719,-0.6602 7.9258,-1.32032 7.25,-2.21882 V -2e-5 H 2.3594 v -21.281 H 7.25 Z"
         id="path31992" /></symbol><symbol
       id="i-0"
       overflow="visible"><path
         d="m 0.34375,-15.312 h 4.8906 l 4.125,10.391 3.5,-10.391 h 4.8906 l -6.4375,16.766 c -0.64844,1.6953 -1.4023,2.8828 -2.2656,3.5625 -0.86719,0.6875 -2,1.0312 -3.4062,1.0312 H 2.79685 V 2.8289 h 1.5312 c 0.83203,0 1.4375,-0.13672 1.8125,-0.40625 C 6.52336,2.16093 6.82024,1.69218 7.03117,1.01645 L 7.17179,0.59457 Z"
         id="path31995" /></symbol><symbol
       id="h-1"
       overflow="visible"><path
         d="m 2.5781,-20.406 h 5.25 v 16.422 h 9.25 V 4e-4 h -14.5 z"
         id="path31998" /></symbol><symbol
       id="g-7"
       overflow="visible"><path
         d="M 17.75,-9.3281 V 0 h -4.9219 v -7.1406 c 0,-1.3203 -0.03125,-2.2344 -0.09375,-2.7344 -0.0625,-0.5 -0.16797,-0.86719 -0.3125,-1.1094 -0.1875,-0.3125 -0.44922,-0.55469 -0.78125,-0.73438 -0.32422,-0.17578 -0.69531,-0.26562 -1.1094,-0.26562 -1.0234,0 -1.8242,0.39844 -2.4062,1.1875 -0.58594,0.78125 -0.875,1.8711 -0.875,3.2656 V -1e-4 H 2.3594 v -15.312 H 7.25 v 2.2344 c 0.73828,-0.88281 1.5195,-1.5391 2.3438,-1.9688 0.83203,-0.42578 1.75,-0.64062 2.75,-0.64062 1.7695,0 3.1133,0.54688 4.0312,1.6406 0.91406,1.0859 1.375,2.6562 1.375,4.7188 z"
         id="path32001" /></symbol><symbol
       id="f-8"
       overflow="visible"><path
         d="m 14.719,-14.828 v 3.9844 c -0.65625,-0.45703 -1.3242,-0.79688 -2,-1.0156 -0.66797,-0.21875 -1.3594,-0.32812 -2.0781,-0.32812 -1.3672,0 -2.4336,0.40234 -3.2031,1.2031 -0.76172,0.79297 -1.1406,1.9062 -1.1406,3.3438 0,1.4297 0.37891,2.543 1.1406,3.3438 0.76953,0.79297 1.8359,1.1875 3.2031,1.1875 0.75781,0 1.4844,-0.10938 2.1719,-0.32812 0.6875,-0.22656 1.3203,-0.56641 1.9062,-1.0156 v 4 c -0.76172,0.28125 -1.5391,0.48828 -2.3281,0.625 -0.78125,0.14453 -1.5742,0.21875 -2.375,0.21875 -2.7617,0 -4.9219,-0.70703 -6.4844,-2.125 -1.5547,-1.4141 -2.3281,-3.3828 -2.3281,-5.9062 0,-2.5312 0.77344,-4.5039 2.3281,-5.9219 1.5625,-1.4141 3.7227,-2.125 6.4844,-2.125 0.80078,0 1.5938,0.07422 2.375,0.21875 0.78125,0.13672 1.5547,0.35156 2.3281,0.64062 z"
         id="path32004" /></symbol><symbol
       id="s-9"
       overflow="visible"><path
         d="m 10.75,-12.516 c 0.82031,0 1.4453,-0.17969 1.875,-0.54688 0.4375,-0.36328 0.65625,-0.89844 0.65625,-1.6094 0,-0.69531 -0.21875,-1.2266 -0.65625,-1.5938 -0.42969,-0.375 -1.0547,-0.5625 -1.875,-0.5625 H 7.8281 v 4.3125 z m 0.17188,8.9375 c 1.0625,0 1.8594,-0.22266 2.3906,-0.67188 0.53125,-0.44531 0.79688,-1.125 0.79688,-2.0312 0,-0.88281 -0.26562,-1.5469 -0.79688,-1.9844 -0.52344,-0.4375 -1.3203,-0.65625 -2.3906,-0.65625 h -3.0938 v 5.3438 z m 4.8906,-7.3438 c 1.1328,0.32422 2.0078,0.92969 2.625,1.8125 0.625,0.88672 0.9375,1.9688 0.9375,3.25 0,1.9688 -0.66797,3.4375 -2,4.4062 -1.3359,0.96875 -3.3555,1.4531 -6.0625,1.4531 h -8.7344 v -20.406 h 7.8906 c 2.832,0 4.8828,0.42969 6.1562,1.2812 1.2812,0.85547 1.9219,2.2266 1.9219,4.1094 0,1 -0.23438,1.8516 -0.70312,2.5469 -0.46875,0.6875 -1.1484,1.2031 -2.0312,1.5469 z"
         id="path32007" /></symbol><symbol
       id="r-15"
       overflow="visible"><path
         d="m 12.422,-21.281 v 3.2188 H 9.7189 c -0.6875,0 -1.1719,0.125 -1.4531,0.375 -0.27344,0.25 -0.40625,0.6875 -0.40625,1.3125 v 1.0625 h 4.1875 v 3.5 H 7.85955 V -2e-4 h -4.8906 v -11.812 h -2.4375 v -3.5 h 2.4375 v -1.0625 c 0,-1.6641 0.46094,-2.8984 1.3906,-3.7031 0.92578,-0.80078 2.3672,-1.2031 4.3281,-1.2031 z"
         id="path32010" /></symbol><symbol
       id="d-49"
       overflow="visible"><path
         d="m 9.6406,-12.188 c -1.0859,0 -1.9141,0.39062 -2.4844,1.1719 -0.57422,0.78125 -0.85938,1.9062 -0.85938,3.375 0,1.4688 0.28516,2.5938 0.85938,3.375 0.57031,0.77344 1.3984,1.1562 2.4844,1.1562 1.0625,0 1.875,-0.38281 2.4375,-1.1562 0.57031,-0.78125 0.85938,-1.9062 0.85938,-3.375 0,-1.4688 -0.28906,-2.5938 -0.85938,-3.375 -0.5625,-0.78125 -1.375,-1.1719 -2.4375,-1.1719 z m 0,-3.5 c 2.6328,0 4.6914,0.71484 6.1719,2.1406 1.4766,1.418 2.2188,3.3867 2.2188,5.9062 0,2.5117 -0.74219,4.4805 -2.2188,5.9062 C 14.332,-0.317 12.2734,0.39 9.6406,0.39 6.9922,0.39 4.9258,-0.31703 3.4375,-1.735 1.9453,-3.1608 1.2031,-5.1295 1.2031,-7.6412 c 0,-2.5195 0.74219,-4.4883 2.2344,-5.9062 1.4883,-1.4258 3.5547,-2.1406 6.2031,-2.1406 z"
         id="path32013" /></symbol><symbol
       id="q-25"
       overflow="visible"><path
         d="m 16.547,-12.766 c 0.61328,-0.94531 1.3477,-1.6719 2.2031,-2.1719 0.85156,-0.5 1.7891,-0.75 2.8125,-0.75 1.7578,0 3.0977,0.54688 4.0156,1.6406 0.92578,1.0859 1.3906,2.6562 1.3906,4.7188 V -4e-4 h -4.9219 v -7.9844 -0.35938 c 0.0078,-0.13281 0.01563,-0.32031 0.01563,-0.5625 0,-1.082 -0.16406,-1.8633 -0.48438,-2.3438 -0.3125,-0.48828 -0.82422,-0.73438 -1.5312,-0.73438 -0.92969,0 -1.6484,0.38672 -2.1562,1.1562 -0.51172,0.76172 -0.77344,1.8672 -0.78125,3.3125 v 7.5156 h -4.9219 v -7.9844 c 0,-1.6953 -0.14844,-2.7852 -0.4375,-3.2656 -0.29297,-0.48828 -0.8125,-0.73438 -1.5625,-0.73438 -0.9375,0 -1.6641,0.38672 -2.1719,1.1562 -0.51172,0.76172 -0.76562,1.8594 -0.76562,3.2969 v 7.5312 h -4.9219 v -15.312 h 4.9219 v 2.2344 c 0.60156,-0.86328 1.2891,-1.5156 2.0625,-1.9531 0.78125,-0.4375 1.6406,-0.65625 2.5781,-0.65625 1.0625,0 2,0.25781 2.8125,0.76562 0.8125,0.51172 1.4258,1.2305 1.8438,2.1562 z"
         id="path32016" /></symbol><symbol
       id="p-7"
       overflow="visible"><path
         d="M 17.75,-9.3281 V 0 h -4.9219 v -7.1094 c 0,-1.3438 -0.03125,-2.2656 -0.09375,-2.7656 -0.0625,-0.5 -0.16797,-0.86719 -0.3125,-1.1094 -0.1875,-0.3125 -0.44922,-0.55469 -0.78125,-0.73438 -0.32422,-0.17578 -0.69531,-0.26562 -1.1094,-0.26562 -1.0234,0 -1.8242,0.39844 -2.4062,1.1875 -0.58594,0.78125 -0.875,1.8711 -0.875,3.2656 V -1e-4 H 2.3594 v -21.281 H 7.25 v 8.2031 c 0.73828,-0.88281 1.5195,-1.5391 2.3438,-1.9688 0.83203,-0.42578 1.75,-0.64062 2.75,-0.64062 1.7695,0 3.1133,0.54688 4.0312,1.6406 0.91406,1.0859 1.375,2.6562 1.375,4.7188 z"
         id="path32019" /></symbol><symbol
       id="o-4"
       overflow="visible"><path
         d="m 2.5781,-20.406 h 5.875 l 7.4219,14 v -14 h 4.9844 V 0 h -5.875 L 7.5625,-14 V 0 H 2.5781 Z"
         id="path32022" /></symbol><symbol
       id="n-9"
       overflow="visible"><path
         d="m 2.1875,-5.9688 v -9.3438 h 4.9219 v 1.5312 c 0,0.83594 -0.00781,1.875 -0.015625,3.125 -0.011719,1.25 -0.015625,2.0859 -0.015625,2.5 0,1.2422 0.03125,2.1328 0.09375,2.6719 0.070313,0.54297 0.17969,0.93359 0.32812,1.1719 0.20703,0.32422 0.47266,0.57422 0.79688,0.75 0.32031,0.16797 0.69141,0.25 1.1094,0.25 1.0195,0 1.8203,-0.39062 2.4062,-1.1719 0.58203,-0.78125 0.875,-1.8672 0.875,-3.2656 v -7.5625 h 4.8906 V -6e-4 H 12.6875 V -2.2194 C 11.94531,-1.32096 11.1641,-0.6608 10.3437,-0.235 9.51948,0.17906 8.6093,0.39 7.6093,0.39 5.8476,0.39 4.5038,-0.14906 3.5781,-1.235 2.64841,-2.317 2.1875,-3.8952 2.1875,-5.9694 Z"
         id="path32025" /></symbol><symbol
       id="m-9"
       overflow="visible"><path
         d="m 2.5781,-20.406 h 8.7344 c 2.5938,0 4.582,0.57812 5.9688,1.7344 1.3945,1.1484 2.0938,2.7891 2.0938,4.9219 0,2.1367 -0.69922,3.7812 -2.0938,4.9375 -1.3867,1.1562 -3.375,1.7344 -5.9688,1.7344 H 7.8281 V 3e-4 h -5.25 z m 5.25,3.8125 v 5.7031 H 10.75 c 1.0195,0 1.8047,-0.25 2.3594,-0.75 0.5625,-0.5 0.84375,-1.2031 0.84375,-2.1094 0,-0.91406 -0.28125,-1.6172 -0.84375,-2.1094 -0.55469,-0.48828 -1.3398,-0.73438 -2.3594,-0.73438 z"
         id="path32028" /></symbol><symbol
       id="l-4"
       overflow="visible"><path
         d="M 2.3594,-15.312 H 7.25 v 15.031 c 0,2.0508 -0.49609,3.6172 -1.4844,4.7031 -0.98047,1.082 -2.4062,1.625 -4.2812,1.625 H -0.9375 V 2.8283 h 0.85938 c 0.92578,0 1.5625,-0.21094 1.9062,-0.625 0.35156,-0.41797 0.53125,-1.2461 0.53125,-2.4844 z m 0,-5.9688 H 7.25 v 4 H 2.3594 Z"
         id="path32031" /></symbol><pattern
       patternUnits="userSpaceOnUse"
       width="41.952756"
       height="41.952756"
       patternTransform="translate(223.5591,97.322789)"
       id="pattern103096"><rect
         style="fill:none;stroke:#000000;stroke-width:0.377953;stroke-linejoin:round;stroke-dasharray:none;stroke-opacity:1"
         id="rect6358-3-9-4-7-6-0"
         width="41.574802"
         height="41.574802"
         x="0.18897638"
         y="0.18897638" /></pattern></defs><g
     inkscape:groupmode="layer"
     id="layer3"
     inkscape:label="Cut"
     style="display:inline"
     transform="translate(-4.95,-4.95)"><g
       inkscape:groupmode="layer"
       id="layer2"
       inkscape:label="Outer_cut"
       style="display:inline" /><g
       inkscape:groupmode="layer"
       id="layer4"
       inkscape:label="Cubes_cut"
       style="display:inline" /></g><g
     inkscape:groupmode="layer"
     id="layer5"
     inkscape:label="Layout"
     style="display:inline"
     transform="translate(-4.95,-4.95)"><rect
       style="fill:#ffffff;stroke:none;stroke-width:0.1;stroke-linejoin:round"
       id="rect3771"
       width="165"
       height="80"
       x="5.0000024"
       y="5.0000014" /><path
       inkscape:connector-curvature="0"
       id="path2062-7-1"
       d="M 5.00001,82 5,8 C 5,6 6,5 8,5 H 167.00001 C 169,5 170,6 170,8 v 74 c 0,2 -1,3 -2.99999,3 H 8 C 6,85 5,84 5.00001,82 Z"
       style="display:inline;fill:none;stroke:#000000;stroke-width:0.1;stroke-linecap:butt;stroke-linejoin:miter;stroke-dasharray:none;stroke-opacity:1"
       sodipodi:nodetypes="ccccccccc" /><rect
       style="display:inline;fill:none;stroke:#000000;stroke-width:0.1;stroke-linejoin:round;stroke-dasharray:none;stroke-opacity:1"
       id="rect6358-10"
       width="9"
       height="9"
       x="9"
       y="14" /><rect
       style="display:inline;fill:none;stroke:#000000;stroke-width:0.1;stroke-linejoin:round;stroke-dasharray:none;stroke-opacity:1"
       id="rect6358-9-3"
       width="9"
       height="9"
       x="21.799988"
       y="14" /><rect
       style="display:inline;fill:none;stroke:#000000;stroke-width:0.1;stroke-linejoin:round;stroke-dasharray:none;stroke-opacity:1"
       id="rect6358-1-0"
       width="9"
       height="9"
       x="34.600006"
       y="14" /><rect
       style="display:inline;fill:none;stroke:#000000;stroke-width:0.1;stroke-linejoin:round;stroke-dasharray:none;stroke-opacity:1"
       id="rect6358-7-04"
       width="9"
       height="9"
       x="47.399994"
       y="14" /><rect
       style="display:inline;fill:none;stroke:#000000;stroke-width:0.1;stroke-linejoin:round;stroke-dasharray:none;stroke-opacity:1"
       id="rect6358-71-5"
       width="9"
       height="9"
       x="60.200012"
       y="14" /><rect
       style="display:inline;fill:none;stroke:#000000;stroke-width:0.1;stroke-linejoin:round;stroke-dasharray:none;stroke-opacity:1"
       id="rect6358-15-4"
       width="9"
       height="9"
       x="73"
       y="14" /><rect
       style="display:inline;fill:none;stroke:#000000;stroke-width:0.1;stroke-linejoin:round;stroke-dasharray:none;stroke-opacity:1"
       id="rect6358-97-24"
       width="9"
       height="9"
       x="9"
       y="26.799988" /><rect
       style="display:inline;fill:none;stroke:#000000;stroke-width:0.1;stroke-linejoin:round;stroke-dasharray:none;stroke-opacity:1"
       id="rect6358-9-7-9"
       width="9"
       height="9"
       x="21.799988"
       y="26.799988" /><rect
       style="display:inline;fill:none;stroke:#000000;stroke-width:0.1;stroke-linejoin:round;stroke-dasharray:none;stroke-opacity:1"
       id="rect6358-1-6-9"
       width="9"
       height="9"
       x="34.600006"
       y="26.799988" /><rect
       style="display:inline;fill:none;stroke:#000000;stroke-width:0.1;stroke-linejoin:round;stroke-dasharray:none;stroke-opacity:1"
       id="rect6358-7-7-9"
       width="9"
       height="9"
       x="47.399994"
       y="26.799988" /><rect
       style="display:inline;fill:none;stroke:#000000;stroke-width:0.1;stroke-linejoin:round;stroke-dasharray:none;stroke-opacity:1"
       id="rect6358-71-3-4"
       width="9"
       height="9"
       x="60.200012"
       y="26.799988" /><rect
       style="display:inline;fill:none;stroke:#000000;stroke-width:0.1;stroke-linejoin:round;stroke-dasharray:none;stroke-opacity:1"
       id="rect6358-15-6-9"
       width="9"
       height="9"
       x="73"
       y="26.799988" /><rect
       style="display:inline;fill:none;stroke:#000000;stroke-width:0.1;stroke-linejoin:round;stroke-dasharray:none;stroke-opacity:1"
       id="rect6358-5-81"
       width="9"
       height="9"
       x="9"
       y="39.600006" /><rect
       style="display:inline;fill:none;stroke:#000000;stroke-width:0.1;stroke-linejoin:round;stroke-dasharray:none;stroke-opacity:1"
       id="rect6358-9-6-6"
       width="9"
       height="9"
       x="21.799988"
       y="39.600006" /><rect
       style="display:inline;fill:none;stroke:#000000;stroke-width:0.1;stroke-linejoin:round;stroke-dasharray:none;stroke-opacity:1"
       id="rect6358-1-3-3"
       width="9"
       height="9"
       x="34.600006"
       y="39.600006" /><rect
       style="display:inline;fill:none;stroke:#000000;stroke-width:0.1;stroke-linejoin:round;stroke-dasharray:none;stroke-opacity:1"
       id="rect6358-7-9-9"
       width="9"
       height="9"
       x="47.399994"
       y="39.600006" /><rect
       style="display:inline;fill:none;stroke:#000000;stroke-width:0.1;stroke-linejoin:round;stroke-dasharray:none;stroke-opacity:1"
       id="rect6358-71-4-33"
       width="9"
       height="9"
       x="60.200012"
       y="39.600006" /><rect
       style="display:inline;fill:none;stroke:#000000;stroke-width:0.1;stroke-linejoin:round;stroke-dasharray:none;stroke-opacity:1"
       id="rect6358-15-8-4"
       width="9"
       height="9"
       x="73"
       y="39.600006" /><rect
       style="display:inline;fill:none;stroke:#000000;stroke-width:0.1;stroke-linejoin:round;stroke-dasharray:none;stroke-opacity:1"
       id="rect6358-7-9-1-6"
       width="9"
       height="9"
       x="47.399994"
       y="59.200012" /><rect
       style="display:inline;fill:none;stroke:#000000;stroke-width:0.1;stroke-linejoin:round;stroke-dasharray:none;stroke-opacity:1"
       id="rect6358-71-4-2-1"
       width="9"
       height="9"
       x="60.200012"
       y="59.200012" /><rect
       style="display:inline;fill:none;stroke:#000000;stroke-width:0.1;stroke-linejoin:round;stroke-dasharray:none;stroke-opacity:1"
       id="rect6358-15-8-9-5"
       width="9"
       height="9"
       x="73"
       y="59.200012" /><rect
       style="display:inline;fill:none;stroke:#000000;stroke-width:0.1;stroke-linejoin:round;stroke-dasharray:none;stroke-opacity:1"
       id="rect6358-7-9-3-6"
       width="9"
       height="9"
       x="47.399994"
       y="72" /><rect
       style="display:inline;fill:none;stroke:#000000;stroke-width:0.1;stroke-linejoin:round;stroke-dasharray:none;stroke-opacity:1"
       id="rect6358-71-4-9-1"
       width="9"
       height="9"
       x="60.200012"
       y="72" /><rect
       style="display:inline;fill:none;stroke:#000000;stroke-width:0.1;stroke-linejoin:round;stroke-dasharray:none;stroke-opacity:1"
       id="rect6358-15-8-0-72"
       width="9"
       height="9"
       x="73"
       y="72" /><rect
       style="display:inline;fill:none;stroke:#000000;stroke-width:0.1;stroke-linejoin:round;stroke-dasharray:none;stroke-opacity:1"
       id="rect6358-8-2"
       width="9"
       height="9"
       x="-166"
       y="14"
       transform="scale(-1,1)" /><rect
       style="display:inline;fill:none;stroke:#000000;stroke-width:0.1;stroke-linejoin:round;stroke-dasharray:none;stroke-opacity:1"
       id="rect6358-9-8-9"
       width="9"
       height="9"
       x="-153.20001"
       y="14"
       transform="scale(-1,1)" /><rect
       style="display:inline;fill:none;stroke:#000000;stroke-width:0.1;stroke-linejoin:round;stroke-dasharray:none;stroke-opacity:1"
       id="rect6358-1-5-2"
       width="9"
       height="9"
       x="-140.39999"
       y="14"
       transform="scale(-1,1)" /><rect
       style="display:inline;fill:none;stroke:#000000;stroke-width:0.1;stroke-linejoin:round;stroke-dasharray:none;stroke-opacity:1"
       id="rect6358-7-0-81"
       width="9"
       height="9"
       x="-127.60001"
       y="14"
       transform="scale(-1,1)" /><rect
       style="display:inline;fill:none;stroke:#000000;stroke-width:0.1;stroke-linejoin:round;stroke-dasharray:none;stroke-opacity:1"
       id="rect6358-71-9-2"
       width="9"
       height="9"
       x="-114.80002"
       y="14"
       transform="scale(-1,1)" /><rect
       style="display:inline;fill:none;stroke:#000000;stroke-width:0.1;stroke-linejoin:round;stroke-dasharray:none;stroke-opacity:1"
       id="rect6358-15-63-4"
       width="9"
       height="9"
       x="-102"
       y="14"
       transform="scale(-1,1)" /><rect
       style="display:inline;fill:none;stroke:#000000;stroke-width:0.1;stroke-linejoin:round;stroke-dasharray:none;stroke-opacity:1"
       id="rect6358-97-8-7"
       width="9"
       height="9"
       x="-166"
       y="26.799988"
       transform="scale(-1,1)" /><rect
       style="display:inline;fill:none;stroke:#000000;stroke-width:0.1;stroke-linejoin:round;stroke-dasharray:none;stroke-opacity:1"
       id="rect6358-9-7-5-8"
       width="9"
       height="9"
       x="-153.20001"
       y="26.799988"
       transform="scale(-1,1)" /><rect
       style="display:inline;fill:none;stroke:#000000;stroke-width:0.1;stroke-linejoin:round;stroke-dasharray:none;stroke-opacity:1"
       id="rect6358-1-6-6-63"
       width="9"
       height="9"
       x="-140.39999"
       y="26.799988"
       transform="scale(-1,1)" /><rect
       style="display:inline;fill:none;stroke:#000000;stroke-width:0.1;stroke-linejoin:round;stroke-dasharray:none;stroke-opacity:1"
       id="rect6358-7-7-1-7"
       width="9"
       height="9"
       x="-127.60001"
       y="26.799988"
       transform="scale(-1,1)" /><rect
       style="display:inline;fill:none;stroke:#000000;stroke-width:0.1;stroke-linejoin:round;stroke-dasharray:none;stroke-opacity:1"
       id="rect6358-71-3-1-7"
       width="9"
       height="9"
       x="-114.80002"
       y="26.799988"
       transform="scale(-1,1)" /><rect
       style="display:inline;fill:none;stroke:#000000;stroke-width:0.1;stroke-linejoin:round;stroke-dasharray:none;stroke-opacity:1"
       id="rect6358-15-6-5-2"
       width="9"
       height="9"
       x="-102"
       y="26.799988"
       transform="scale(-1,1)" /><rect
       style="display:inline;fill:none;stroke:#000000;stroke-width:0.1;stroke-linejoin:round;stroke-dasharray:none;stroke-opacity:1"
       id="rect6358-5-9-3"
       width="9"
       height="9"
       x="-166"
       y="39.600006"
       transform="scale(-1,1)" /><rect
       style="display:inline;fill:none;stroke:#000000;stroke-width:0.1;stroke-linejoin:round;stroke-dasharray:none;stroke-opacity:1"
       id="rect6358-9-6-8-7"
       width="9"
       height="9"
       x="-153.20001"
       y="39.600006"
       transform="scale(-1,1)" /><rect
       style="display:inline;fill:none;stroke:#000000;stroke-width:0.1;stroke-linejoin:round;stroke-dasharray:none;stroke-opacity:1"
       id="rect6358-1-3-4-2"
       width="9"
       height="9"
       x="-140.39999"
       y="39.600006"
       transform="scale(-1,1)" /><rect
       style="display:inline;fill:none;stroke:#000000;stroke-width:0.1;stroke-linejoin:round;stroke-dasharray:none;stroke-opacity:1"
       id="rect6358-7-9-8-5"
       width="9"
       height="9"
       x="-127.60001"
       y="39.600006"
       transform="scale(-1,1)" /><rect
       style="display:inline;fill:none;stroke:#000000;stroke-width:0.1;stroke-linejoin:round;stroke-dasharray:none;stroke-opacity:1"
       id="rect6358-71-4-1-3"
       width="9"
       height="9"
       x="-114.80002"
       y="39.600006"
       transform="scale(-1,1)" /><rect
       style="display:inline;fill:none;stroke:#000000;stroke-width:0.1;stroke-linejoin:round;stroke-dasharray:none;stroke-opacity:1"
       id="rect6358-15-8-03-7"
       width="9"
       height="9"
       x="-102"
       y="39.600006"
       transform="scale(-1,1)" /><rect
       style="display:inline;fill:none;stroke:#000000;stroke-width:0.1;stroke-linejoin:round;stroke-dasharray:none;stroke-opacity:1"
       id="rect6358-7-9-1-0-6"
       width="9"
       height="9"
       x="-127.60001"
       y="59.199982"
       transform="scale(-1,1)" /><rect
       style="display:inline;fill:none;stroke:#000000;stroke-width:0.1;stroke-linejoin:round;stroke-dasharray:none;stroke-opacity:1"
       id="rect6358-71-4-2-4-8"
       width="9"
       height="9"
       x="-114.80002"
       y="59.199982"
       transform="scale(-1,1)" /><rect
       style="display:inline;fill:none;stroke:#000000;stroke-width:0.1;stroke-linejoin:round;stroke-dasharray:none;stroke-opacity:1"
       id="rect6358-15-8-9-4-1"
       width="9"
       height="9"
       x="-102"
       y="59.199982"
       transform="scale(-1,1)" /><rect
       style="display:inline;fill:none;stroke:#000000;stroke-width:0.1;stroke-linejoin:round;stroke-dasharray:none;stroke-opacity:1"
       id="rect6358-7-9-3-4-3"
       width="9"
       height="9"
       x="-127.60001"
       y="72"
       transform="scale(-1,1)" /><rect
       style="display:inline;fill:none;stroke:#000000;stroke-width:0.1;stroke-linejoin:round;stroke-dasharray:none;stroke-opacity:1"
       id="rect6358-71-4-9-4-6"
       width="9"
       height="9"
       x="-114.80002"
       y="72"
       transform="scale(-1,1)" /><rect
       style="display:inline;fill:none;stroke:#000000;stroke-width:0.1;stroke-linejoin:round;stroke-dasharray:none;stroke-opacity:1"
       id="rect6358-15-8-0-7-4"
       width="9"
       height="9"
       x="-102"
       y="72"
       transform="scale(-1,1)" /><rect
       style="display:inline;fill:none;stroke:#000000;stroke-width:0.1;stroke-linejoin:round;stroke-dasharray:none;stroke-opacity:1"
       id="rect6358-7-9-1-0-4-83-0"
       width="9"
       height="9"
       x="-43.600006"
       y="59.200012"
       transform="scale(-1,1)" /><rect
       style="display:inline;fill:none;stroke:#000000;stroke-width:0.1;stroke-linejoin:round;stroke-dasharray:none;stroke-opacity:1"
       id="rect6358-7-9-3-4-2-3-3"
       width="9"
       height="9"
       x="-43.600006"
       y="72"
       transform="scale(-1,1)" /><rect
       style="display:inline;fill:none;stroke:#000000;stroke-width:0.1;stroke-linejoin:round;stroke-dasharray:none;stroke-opacity:1"
       id="rect6358-7-9-1-0-4-4-5"
       width="9"
       height="9"
       x="-140.40002"
       y="59.199982"
       transform="scale(-1,1)" /><rect
       style="display:inline;fill:none;stroke:#000000;stroke-width:0.1;stroke-linejoin:round;stroke-dasharray:none;stroke-opacity:1"
       id="rect6358-7-9-3-4-2-7-0"
       width="9"
       height="9"
       x="-140.40002"
       y="72"
       transform="scale(-1,1)" /></g><g
     inkscape:groupmode="layer"
     id="layer6"
     inkscape:label="Train"
     style="display:inline"
     transform="translate(-4.95,-4.95)" /><g
     inkscape:groupmode="layer"
     id="layer7"
     inkscape:label="Cricles"
     style="display:inline"
     transform="translate(-4.95,-4.95)" /></svg>
